<svg version="1.1" xmlns="http://www.w3.org/2000/svg" viewBox="0 0 802.4000244140625 477.6000213623047" width="802.4000244140625" height="477.6000213623047" filter="invert(93%) hue-rotate(180deg)">
  <!-- svg-source:excalidraw -->
  
  <defs>
    <style class="style-fonts">
      @font-face {
        font-family: "Virgil";
        src: url("https://excalidraw.com/Virgil.woff2");
      }
      @font-face {
        font-family: "Cascadia";
        src: url("https://excalidraw.com/Cascadia.woff2");
      }
    </style>
  </defs>
  <rect x="0" y="0" width="802.4000244140625" height="477.6000213623047" fill="#ffffff"></rect><g stroke-linecap="round" transform="translate(10 10) rotate(0 391.20001220703125 228.80001068115234)"><path d="M0 0 C0 0, 0 0, 0 0 M0 0 C0 0, 0 0, 0 0 M-0.52 7.08 C1.12 3.79, 3.56 1.27, 4.2 0.69 M0.05 6.17 C1.32 5, 2.62 2.7, 4.62 0.18 M-0.41 12.16 C1.18 10.64, 6.03 5.44, 11.93 0.12 M0.23 12.73 C3.55 8.69, 6.91 5.88, 10.84 0.15 M1.1 17.01 C5.57 12.88, 6.43 9.01, 14.5 0.51 M-0.12 18.99 C4.62 12.71, 9.78 6.35, 15.23 0.28 M-0.2 22.71 C3.78 19.57, 8.81 13.84, 20.49 -0.54 M-0.63 24.11 C4.57 19.86, 9.42 14.67, 20.41 0.32 M1.77 28.9 C7.17 24.38, 12.17 14.23, 25.07 2.11 M0.63 31.43 C7.67 23.53, 14.21 15.41, 25.88 0.4 M0.9 38.86 C6.42 30.94, 13.42 22.87, 32.98 0.79 M-1.21 36.36 C9.71 24.44, 21.28 13.49, 31.16 -1.09 M1.4 43.05 C8.46 31.85, 20.34 19.44, 38.31 -1.52 M0.92 43.07 C12.14 28.18, 24.49 14.59, 37.27 0.83 M0.43 50.87 C9.18 37.75, 16.32 30.72, 42.34 0.12 M0.73 49.1 C16.11 30.68, 30.7 13.81, 42.65 0.06 M1.36 54.66 C16.12 38.55, 32.05 18.44, 48.89 0.05 M-0.13 54.38 C20.26 32.38, 37.33 11.02, 46.62 -0.3 M1.12 61.18 C17.13 43.7, 29.75 26.65, 54.24 1.33 M-0.63 61.57 C12.27 46.77, 25.54 32.91, 53.33 0.4 M-0.57 67.64 C20.22 46.85, 41.26 24.01, 58.5 -0.83 M-1.1 67.11 C14.86 48.24, 31.34 29.77, 57.15 0.64 M1.45 73.39 C17.27 53.75, 30.4 37.01, 63.45 0.25 M-0.47 73.78 C24.63 46.36, 47.01 19.51, 64.64 -0.93 M0.43 79.55 C23.79 51.61, 48.05 23.15, 67.94 2.15 M0.39 79.29 C16.89 60.03, 33.92 39.82, 68 0.82 M-1.06 85.06 C29.19 50.17, 57.52 19.25, 73.77 0.67 M0.01 85.28 C26.07 54.21, 53.53 23.36, 74.98 -0.22 M0.25 90.16 C14.88 70.1, 34.76 49.98, 81.04 1.23 M-0.29 91.72 C22.58 66.76, 44.4 40.46, 80.32 0.94 M1.52 96.43 C22.64 68.25, 47.26 44.23, 86.06 -1.73 M-1.09 97.89 C31.4 60.3, 62.51 25.82, 85.71 0.72 M0.51 102.44 C21.2 81.32, 38.96 60.31, 88.71 -1.42 M-0.15 103 C34.52 66.4, 67.71 28.3, 89.2 -0.76 M-1.83 111.41 C39.8 65.34, 77.59 21.36, 94.28 0.7 M0.27 110.72 C26.68 78.51, 53.55 47.92, 95.17 0.66 M-0.1 115.28 C37.37 71.39, 77.55 26.11, 100.9 -1.69 M0.76 116.26 C36.59 73.47, 72.35 32.48, 99.73 -0.52 M-1.06 122.12 C36.06 81.12, 70.71 42.59, 105.4 -0.45 M0.14 122.66 C39.86 76.37, 77.28 32.09, 106.68 -1.13 M1.52 128.25 C39.69 81.91, 80.94 33.31, 110.66 -1.53 M0.74 127.9 C42.1 81.81, 81.35 34.99, 110.93 0.96 M1.6 133.86 C39.65 87.34, 82.83 41.29, 114.85 -0.91 M-0.83 133.38 C25.46 105.23, 50.63 76.63, 115.84 -0.09 M-0.52 138.64 C25.98 107.62, 55.73 77.43, 122.07 -0.94 M-1.02 140.6 C41.8 91.24, 82.09 45.04, 121.83 0.5 M-0.99 145.87 C26.98 111.27, 56.61 75.9, 125.04 1.27 M0 146.09 C52.21 90.2, 100.92 31.67, 127.21 0.63 M-0.89 153.73 C28.16 119.25, 57.38 90.33, 134.1 -1.81 M-0.26 151.89 C38.99 107.67, 77.59 63.86, 133.31 0.4 M-1.43 159.93 C33.66 120.9, 66.01 81.03, 137.52 2 M0.48 158.32 C31.6 121.56, 63.11 85.78, 138.26 0.61 M-0.84 164.6 C49.21 107.7, 96.5 52.88, 141.73 -0.78 M0.67 164.79 C43.83 115.92, 86.46 66.07, 142.65 0.61 M0.05 170.19 C47.4 111.94, 97.15 58.14, 147.61 1.16 M0.66 170.68 C55.27 107.25, 110.32 43.75, 148.41 -0.51 M-0.36 177.31 C43.41 128.12, 86.41 80.41, 153.17 0.2 M0.82 177.27 C42.07 128.2, 84.16 80.38, 154.21 0.58 M1.14 181.89 C62.23 111.87, 123.42 42.24, 159.25 1.5 M0.43 183.67 C39.49 137.4, 79.85 91.85, 159.5 0.64 M0.71 187.96 C42.53 141.3, 81.8 96.75, 165.07 0.91 M-0.59 188.74 C63.55 115.08, 127.66 42, 165.22 -0.52 M-0.45 194.1 C57.95 128.34, 116.25 62.31, 170.2 -0.92 M0.24 195.07 C41.3 149.59, 80.41 102.17, 169.14 0.99 M-1.09 200.41 C46.82 143.86, 95.16 89.92, 173.78 -0.47 M0.01 201.68 C46.25 148.73, 92.24 96.17, 174.85 -0.64 M-1.25 207.47 C45.95 151.3, 95.88 96.13, 179.3 -0.29 M0.47 207.25 C47.48 153.38, 93.21 100.45, 180.63 -0.16 M-0.58 213.94 C38.24 170.41, 73.43 128.89, 184.52 -0.98 M0.09 213.1 C69.2 132.73, 139.81 52.3, 185.37 0.14 M0.44 218.79 C60.89 150.64, 119.08 82.28, 189.35 -0.58 M-0.75 219.69 C74.28 132.51, 147.89 47.51, 190.08 0 M-0.75 224.28 C47.68 170.82, 96.93 115.23, 195.28 0.45 M0.2 226.03 C51.31 163.48, 105.41 102.75, 195.81 -0.07 M-1.43 233.2 C65.73 157.16, 129.72 82.02, 200.67 0.46 M-0.28 232.32 C55.34 168.09, 109.74 105.98, 200.62 -0.08 M-0.6 236.19 C47.72 182.77, 94.26 127.72, 206.49 0.4 M0.09 237.78 C66.28 161.9, 131.85 85.08, 206.72 -0.41 M-0.58 244.6 C54.45 181.13, 106.53 120.64, 211.48 -0.8 M-0.01 244.01 C59.42 175.22, 118.68 106.73, 211.43 0.05 M0.79 249.05 C83.51 153.91, 164.88 59.64, 217.84 0.01 M-0.45 249.9 C78.76 159.23, 158.47 67.02, 217.18 -0.45 M0.31 256.44 C76.95 170.31, 152.2 83.58, 223.61 0.49 M0.32 255.53 C82.24 162.35, 163.24 69.11, 222.46 -0.23 M-1.09 262.72 C69.7 183.44, 138.52 102.95, 228.48 -1.1 M-0.4 261.9 C65.54 185.44, 132.03 108.95, 227.69 -0.13 M0.87 267.78 C77.54 181.64, 152.78 95.46, 234.18 0.72 M0.91 268.52 C47.6 212.51, 96.51 156.76, 233 0.19 M-1.11 274.06 C55.29 212.94, 107.57 152.86, 238.95 1.23 M-0.06 274.48 C60.54 206.61, 120.33 137.98, 238.02 -0.2 M-0.42 279.78 C57.38 213.11, 116.77 144.42, 243.87 -0.75 M0.01 281.11 C64.66 206.73, 128.24 131.96, 244.27 0.12 M-0.95 286.97 C85.58 190.11, 170.42 91.94, 248.6 -0.1 M0.25 286.71 C59.22 218.92, 117.72 152.14, 248.59 -0.11 M-1.16 292.41 C58.74 225.04, 118.07 157.86, 253.9 0.26 M0.37 292.87 C80.5 197.74, 163.09 103.53, 254.33 0.03 M0.89 297.76 C70.98 216.66, 141.28 135.92, 259.2 1.31 M0.81 298.1 C74.77 211.75, 150.21 124.36, 259.15 0.07 M0.62 304.24 C85.95 207.97, 170.38 111.39, 265.86 0.4 M0.27 305.19 C89.93 201.06, 180.43 97.74, 265.5 -0.49 M-1.06 310.71 C55.99 245.17, 114.41 178.63, 270.08 0.22 M-0.46 311.52 C87.19 209.99, 176.37 108.66, 270.01 0.45 M0.16 316.65 C62.81 245.13, 127.85 169.81, 275.23 -0.96 M-0.14 317.25 C59.54 247.15, 120.52 177.58, 275.91 -0.43 M-0.47 322.99 C103.65 203.52, 206.78 84.29, 280.16 -0.38 M0.22 323.26 C84.04 226.76, 168.45 130.53, 280.37 -0.14 M1.19 329.69 C114.06 197.13, 227.93 66.44, 286.97 -0.31 M0.3 329.19 C63.13 258.42, 125.1 186.75, 286.58 0.28 M0.63 336.21 C97.57 221.47, 196.59 107.57, 292.07 0.9 M-0.25 335.54 C61.71 264.43, 123.59 192.38, 291.54 0.09 M-0.11 341.25 C98.31 226.99, 197.64 112.61, 297.89 -0.58 M-0.09 341.64 C104.03 222.13, 207.85 102.69, 296.87 0.03 M-0.23 347.28 C96.89 238.71, 191.24 130.55, 301.87 0.47 M0.33 346.99 C100.94 230.24, 202.27 114.62, 301.75 0.47 M0.05 353.89 C79.94 262.03, 161.54 169.23, 307.75 -0.57 M0.07 353.68 C113.55 222.72, 227.92 90.97, 307.6 -0.42 M0.76 359.03 C91.31 254.41, 180.57 151.51, 313.06 -0.13 M0.63 359.39 C117.71 225.16, 235.04 89.85, 312.24 0.28 M0.88 365.54 C94.64 258.42, 188.27 149.3, 318.54 -1.03 M0.18 365.49 C68.17 289.83, 134.22 213.82, 318.16 -0.21 M-0.27 372.76 C81.39 281.27, 161.05 188.59, 323.06 -0.53 M0.16 371.79 C98.31 258.64, 198.01 143.92, 323.13 0.39 M0.25 378 C79.95 285.67, 161.28 192.79, 329.02 -0.96 M0.25 378.02 C107.22 253.54, 214.3 130.43, 329.22 -0.08 M0.59 384.23 C126.51 236.22, 253.53 90.27, 334.14 0.29 M-0.03 383.9 C118.64 248.35, 236.9 113.61, 333.71 -0.24 M0.75 390.4 C75.3 304.46, 150.97 216.56, 340.19 0.42 M0.3 389.58 C117.94 252.84, 236.55 116.22, 339.42 -0.41 M0.71 396.46 C94.38 288.99, 187.05 181.45, 344.81 -0.62 M0.31 396.18 C131.43 244.57, 262.99 93.1, 344.16 0.4 M0.52 401.88 C79.74 309.03, 160.01 216.25, 349.54 -0.04 M-0.35 402.26 C88.62 300.68, 176.92 198.67, 349.56 0.14 M0.15 408.4 C101.56 290.82, 203.83 172.49, 354.87 -0.6 M0.05 408.58 C117.46 274.17, 234.17 140.55, 355.4 0.1 M-0.62 414.88 C133.77 261.03, 268.46 107.25, 360.18 0.2 M-0.4 414.91 C133.08 260.71, 266.67 108, 360.35 0.08 M0.36 421.32 C79.01 330.14, 158.53 237.17, 365.33 0.57 M-0.6 421.22 C134.81 266.41, 270.13 111.34, 365.96 -0.32 M-0.44 426.86 C93.24 321.56, 185.51 214.83, 370.48 1.08 M0.26 426.87 C141.61 264.19, 282.4 103.17, 370.96 0.4 M0.37 432.62 C88.52 332.89, 175.18 233.68, 376.81 0.69 M0.15 432.98 C126.34 285.89, 254.6 138.67, 376.73 -0.23 M0.41 438.53 C134.37 283.61, 269.8 129.36, 381.49 0.2 M-0.03 438.9 C119.3 299.72, 240.36 160.56, 381.57 -0.09 M-0.72 445.15 C112.17 314.4, 226.55 183.83, 386.39 -0.07 M0.08 445.18 C126.52 298.78, 253.37 152.34, 387.01 0.01 M0.24 452.12 C111.1 324.26, 220.95 197.72, 391.49 -0.09 M-0.37 451.56 C145.62 281.11, 292.54 111.93, 391.99 0.09 M0.46 457.76 C147.74 287.08, 297.6 115.21, 397.16 -0.78 M0.43 457.03 C110.65 333.06, 220.08 207.52, 397.67 -0.13 M3.81 459.77 C132.16 311.91, 260.58 164.3, 402.37 0.95 M2.95 459.97 C121.39 325.17, 238.3 190.5, 402.38 0.18 M7.57 460.23 C102.89 350.81, 197.75 241.22, 408.61 0.3 M8.29 460.48 C158.33 288.37, 306.98 117.31, 407.98 0.2 M14.23 459.14 C118.43 338.57, 222.43 218.41, 413.25 0.82 M13.94 459.77 C160.34 292.8, 306.7 124.14, 413.29 0.46 M18.01 460.6 C115.76 348.41, 213.92 236.32, 418.29 -0.75 M18.82 460.4 C127.01 337.32, 234.55 214.29, 418.8 0.09 M23.72 459.13 C180.4 282.87, 334.03 104.88, 423.69 0.2 M24.48 460.1 C123.11 346.22, 219.88 234.85, 424.08 -0.18 M28.98 460.67 C165.94 299.58, 305.95 139.78, 429.75 -0.65 M29.39 460.44 C135.53 340.64, 239.46 220.53, 429.36 0.03 M34.53 459.5 C144.88 332.71, 255.49 205.72, 435.26 -0.25 M35.25 460 C163.39 311.69, 293.96 162.01, 434.49 -0.24 M39.17 460.8 C162.82 318.1, 283.63 178.74, 439.8 -0.16 M39.6 459.85 C163.48 317.93, 285.53 177.1, 440.5 -0.47 M44.69 459.95 C128.71 365.88, 211.46 271.61, 445.16 0.1 M44.69 460.68 C192.98 289.44, 340.6 119.59, 445.42 0.38 M50.88 459.73 C159.24 337.43, 264.68 214.95, 451.23 -0.86 M50.21 459.69 C132.48 364.95, 216.29 269.25, 450.62 -0.49 M55.43 460.3 C195.95 297.69, 336.34 136.06, 455.8 0.27 M55.58 460.1 C166.25 332.11, 278.02 204.12, 455.81 -0.37 M62.02 459.35 C212.1 286.9, 363.94 113.07, 461.68 -0.35 M61.59 459.64 C151.64 355.83, 242.07 251.59, 461.35 -0.11 M65.64 460.2 C218.81 283.24, 372.6 105.89, 466.85 -0.77 M66.3 460.69 C193.03 313, 319.91 167.41, 466.53 -0.38 M72.54 459.96 C228.23 279.36, 383.89 101.53, 470.96 0.48 M72.08 459.58 C179.75 333.96, 288.27 208.27, 471.2 0.37 M76.06 460.91 C184.07 334.03, 293.49 208.63, 476.77 0.74 M76.7 459.95 C196.81 323.59, 315.77 186.63, 477.28 0.31 M82.83 460.21 C178.3 349.64, 272.82 241.55, 482.07 0.88 M82.81 459.62 C207.17 315.06, 332.46 171.15, 482.27 0.61 M87.08 459.68 C200.44 331.29, 312.2 202.5, 487.67 0.54 M87.41 459.98 C243.05 281.76, 398 103.18, 487.33 0.27 M93.68 460.33 C198.07 339.15, 302.71 218.62, 492.46 -0.08 M92.92 460.07 C237.73 291.49, 384.43 123.63, 492.28 -0.08 M98.73 460.92 C246.28 291.07, 394.28 119.24, 498.86 -0.88 M98.24 460.31 C221.49 319.27, 344.03 178.46, 497.94 -0.14 M103.11 460.52 C263.46 276.68, 422.48 94.64, 503.06 -0.1 M103.5 459.84 C224.1 319.54, 345.5 179.17, 503.57 -0.12 M109.03 460.25 C190.26 367.35, 270.25 275.32, 508.5 0.18 M109.01 460.25 C241.02 307.81, 372.19 156.37, 509.16 -0.32 M114.37 459.39 C267.18 285.25, 419.05 111.89, 514.45 0.68 M114.46 459.68 C214.89 342.9, 316.01 227.5, 513.68 0.29 M118.84 460.41 C250.94 309.27, 381.87 157.44, 519.96 -0.63 M119.49 460.56 C233.17 331.36, 345.04 202.41, 519.81 -0.28 M124.73 460.27 C256.18 304.67, 389.77 152.62, 525.2 -0.29 M125.27 459.74 C278.66 280.62, 433.14 103.28, 524.95 -0.05 M130.26 460.17 C213.82 365.82, 297.17 270.42, 530.63 0.32 M130.28 460.19 C265.74 301.89, 401.49 145.52, 529.93 -0.6 M135.1 460.1 C288.79 283.41, 442.93 105.2, 535.13 0.01 M135.83 459.57 C271.31 303.65, 406.47 147.23, 534.89 -0.12 M140.19 460.63 C291.77 284.25, 444.91 108.37, 541.55 0.24 M140.32 460.31 C236.51 350.06, 333.64 238.66, 540.73 -0.07 M146.8 458.99 C250.15 340.07, 354.97 220.57, 545.28 0.57 M146.37 459.76 C306.02 279.33, 464.24 97.48, 545.8 0.12 M151.57 460.5 C270.36 319.71, 392.28 180.3, 550.96 -0.48 M150.99 460.3 C261.16 336.85, 369.2 212.45, 551.4 -0.44 M156.12 460.98 C267.57 334.65, 379.11 206.19, 556.29 -0.43 M156.1 460.24 C274.22 325.05, 390.99 191.33, 556.78 -0.3 M162.16 460.84 C284.59 317.64, 407.64 176.69, 562.33 0.11 M162.02 460.15 C267.44 337.94, 373.56 215.95, 562.32 -0.06 M166.55 459.82 C307.15 297.21, 448.26 135.76, 566.87 0.75 M166.57 460.5 C253.4 358.54, 340.57 259.27, 566.9 -0.13 M172.55 460.3 C269.62 348.76, 366.93 236.06, 573.17 -0.87 M172.34 459.67 C260.13 361.06, 347.58 260.17, 572.67 -0.28 M176.82 461.08 C336.4 277.8, 495.07 95.17, 576.92 0.63 M177.73 460.12 C264.87 359.03, 351.5 258.8, 577.64 0.12 M182.94 459.9 C280.31 347.29, 377.29 234.4, 582.34 0.87 M183.26 460.08 C291.05 332.64, 400.69 206.53, 582.96 0.15 M188.37 459.99 C317.24 312.2, 447.62 163.27, 587.58 -0.29 M188.2 460.51 C342.7 282.22, 498.01 103.29, 588.03 -0.28 M193.18 459.83 C332.19 304.12, 468.04 145.7, 592.7 0.88 M193.69 460 C324.19 309.12, 457.36 155.96, 593.63 0.38 M198.24 459.72 C294.09 351.18, 391.26 239.22, 599.61 -0.76 M198.57 460.11 C311.86 332.13, 423.64 203.41, 598.74 0.16 M204.33 459.47 C311.35 337.15, 419.89 213.24, 603.97 0.18 M204.12 460.28 C301.4 349.13, 398.83 237.95, 603.58 0.49 M208.71 460.22 C308.51 344.56, 408.03 229.92, 610.2 -0.31 M209.04 459.98 C326.19 326.19, 444.95 190.08, 609.57 -0.46 M215.47 460.55 C314.62 343.77, 415.83 228.82, 615.35 0.6 M215.02 459.98 C297.82 364.19, 382.04 268.03, 614.32 -0.03 M219.27 459.84 C322.25 342.91, 424.45 226.11, 620.95 0.67 M220.17 460.57 C337.01 326.93, 452.77 193.13, 620.36 -0.2 M225.31 459.2 C313.98 360.71, 400.05 262.07, 624.86 0.76 M225.28 459.57 C383.66 277.91, 541.47 97.37, 625.37 0.16 M231.45 460.08 C369.57 300.58, 509.57 138.87, 631.51 -0.63 M230.52 460.15 C379.87 287.36, 529.44 115.07, 630.9 -0.55 M236.99 460.32 C386.84 285.08, 539.98 109, 635.75 0.82 M236.13 460.12 C358.56 321, 479.78 181.14, 635.82 0.2 M240.8 460.81 C335.45 353.53, 427.41 247.31, 641.14 0.16 M241.44 460.42 C364.19 317.51, 487.96 174.77, 641.79 0.03 M246.87 459.97 C352.31 337.17, 459.85 212.74, 646.9 0.96 M247.22 460.12 C328.71 365.38, 409.1 272.38, 646.75 0.22 M251.29 460.31 C409.51 279.71, 564.76 100, 651.91 0.2 M252.27 460.08 C377.1 317.77, 502.37 174.83, 652 -0.28 M257.34 459.8 C373.54 325.1, 488.65 192.83, 657.61 -0.31 M257.38 459.49 C380.98 316.66, 504.69 174.16, 657.24 -0.21 M262.52 460 C389.39 313.28, 515.77 167.61, 662.35 -1.01 M262.73 460.43 C364.06 343.99, 463.43 229.43, 662.9 -0.33 M268.81 459.02 C409.56 294.63, 552.62 130.51, 667.59 0.34 M267.82 459.54 C425.99 278.81, 582.61 98.52, 667.55 0.3 M272.91 459.68 C390.52 323.97, 508.87 188.69, 673.79 0.04 M272.92 459.8 C369.49 347.26, 466.55 235.01, 673.44 0.06 M277.46 459.99 C390.73 333.12, 502.75 202.98, 678.6 -0.22 M278.3 460.56 C430.03 287.67, 580.45 114.27, 678.33 0.12 M284.52 460.75 C364.93 366.33, 448.58 271.37, 683.99 -0.39 M284.15 459.93 C391.7 337.24, 499.48 213.03, 684.17 -0.71 M289.06 460.37 C433.79 293.06, 579.99 124.01, 689.61 -0.33 M288.91 460.38 C425.35 304.27, 560.15 148.75, 689.01 0.25 M295.01 459.76 C428.13 306.63, 559.32 155.23, 695.13 -0.45 M294.11 460.37 C436.41 297.28, 578.99 133, 694.82 -0.43 M299.05 460.86 C383.3 363.28, 470.1 264.1, 700.02 0.04 M299.38 460.51 C420.83 321.5, 542.74 181.36, 699.41 0.31 M305.69 459.63 C441.87 301.07, 580.56 142.09, 705.18 0.03 M304.85 460.07 C458.98 283.22, 612.1 106.8, 704.43 0.46 M309.53 460.58 C442.67 308.05, 573.97 157.41, 709.65 -0.7 M310.08 460.72 C412.15 341.51, 516.65 222.27, 710.54 0.11 M315.08 460.09 C445.35 315.17, 573.56 166.77, 715.28 -0.26 M315.65 459.82 C428.25 329.26, 543.37 197.26, 714.84 0.68 M320.64 461.02 C439.05 321.85, 558.79 184.86, 720.35 0.63 M320.55 460.59 C457.76 303.36, 594.76 146.01, 720.6 -0.29 M326.93 459.2 C456.77 309.58, 586.96 159.1, 725.83 0.4 M326.14 459.8 C427.39 343.5, 528.5 227.66, 725.87 0.25 M330.54 459.65 C419.49 356.03, 508.14 254.68, 731.21 -0.81 M331.14 460.31 C424.82 350.36, 519.41 242.36, 731.39 0.14 M337.41 459.84 C430.19 354.85, 523.54 247.93, 735.93 0.57 M337.18 459.6 C466.49 311.42, 594.39 163.89, 736.41 0.6 M341.82 459.52 C458.72 325.37, 574.4 193.15, 741.7 -0.29 M342.19 459.89 C497.32 283.3, 652.37 105.8, 741.85 -0.53 M347.92 460.02 C467.2 323.95, 586.58 187.74, 747.48 -0.45 M347.57 459.85 C503.52 284.17, 657.62 106.25, 746.91 -0.19 M351.89 459.64 C505.9 284.21, 660.7 106.47, 753.37 0.5 M352.39 459.95 C506.59 280.98, 661.04 102.34, 752.97 -0.03 M358.68 459.36 C512.99 280.79, 665.9 105.18, 757.22 0.64 M358.12 459.77 C514.86 277.08, 672.34 95.14, 757.84 0.57 M362.58 459.82 C481.03 324.81, 598.93 188.61, 763.35 -0.16 M362.86 460.12 C518.34 282.14, 672.97 103.66, 763.68 0.14 M368.75 459.04 C509.88 297.91, 649.59 136.21, 767.91 -0.08 M368.45 459.58 C505.51 299.19, 644.6 139.09, 768.03 -0.25 M373.77 460.62 C491.83 323.5, 609.94 186.47, 774.02 -0.81 M373.9 459.84 C489.45 328.13, 604.46 194.91, 774.13 -0.54 M379.19 460.22 C479.37 345.38, 579.58 231.02, 778.74 0.63 M379.32 459.75 C498.87 324.48, 616.42 188.37, 778.72 0.47 M384.92 460.19 C532.64 290.34, 680.23 120.02, 783.67 1.49 M384.17 459.96 C521.21 300.81, 659.1 142.51, 783.51 1.56 M389.26 459.99 C521.27 309.61, 653.82 158.86, 784.21 7.17 M389.66 460.09 C527.35 303.55, 664.28 146.3, 783.61 6.85 M395.16 460.64 C546.42 285.96, 698.53 111.09, 782.85 14.01 M394.74 460.36 C538.26 297.97, 679.67 135.42, 783.27 13.02 M400.58 461.14 C496.1 351.02, 592.14 240.83, 783.42 20.4 M399.94 460.76 C500.41 345.29, 599.34 231.67, 782.97 20.04 M406.43 460.08 C529.07 318.57, 652.79 175.87, 784.4 25.95 M405.87 459.91 C522.33 327.14, 638.61 193.41, 783.9 25.02 M410.05 460.7 C500.85 357.86, 589.45 254.68, 783.54 31.08 M410.65 460.41 C502.89 356.66, 594.64 251.68, 783.09 31.82 M417.07 460.57 C505.97 354.01, 598.45 249.75, 784.38 37.09 M416.2 459.72 C523.39 338.9, 629.83 216.98, 783.87 37.1 M422.04 459.75 C547.76 315.58, 674.05 170.13, 783.18 43.13 M421.72 460.33 C554.83 304.79, 689.66 150.51, 783.69 43.68 M426.69 460.15 C541.05 328.27, 655.44 196.44, 783.44 49.5 M426.76 459.87 C559.47 308.72, 693.14 155.33, 783 49.78 M431.75 460.91 C506.16 373.91, 580.86 288.4, 782.88 55.65 M431.88 460.44 C558.49 315.69, 682.79 172.51, 783.54 55.39 M437.68 459.26 C507.8 378.57, 578.33 297.34, 783.01 61.38 M437.77 460.3 C571.68 307.28, 704.2 154.86, 783.46 62.31 M442.81 460.38 C534.28 354.74, 626.32 248.7, 784.35 68.54 M442.64 460.06 C567.05 316.74, 692.57 172.32, 783.79 68.14 M448.89 460.67 C533.21 360.76, 620.15 260.66, 782.99 74.78 M448.62 459.93 C546.73 347.77, 643.85 235.38, 783.45 74.06 M452.86 460.75 C569.51 326.43, 685.71 194.56, 783.5 80.03 M453.5 460.33 C530.29 370.85, 608.42 280.95, 783.33 80.47 M458.78 459.97 C570.08 334.14, 679.1 208.8, 784.37 86.14 M458.7 459.91 C531.76 375.34, 604.78 291.93, 783.8 86.21 M463.15 459.76 C555.12 356.93, 646.17 252.54, 782.61 93.29 M463.51 460.19 C540.29 371.86, 616.23 284.86, 782.98 92.48 M470.3 459.89 C593.37 316.68, 717.63 173.59, 783.7 98.3 M469.84 459.57 C549.44 365.48, 631.58 271.76, 784.17 98.6 M473.8 459.98 C565.38 355.34, 655.73 250.5, 783.31 104.79 M474.63 460.45 C566.75 354.23, 660.25 246.66, 783.23 104.76 M479.24 459.06 C563.56 361.48, 650.35 261.37, 783.89 111.71 M480.57 459.74 C552.46 379.37, 623.07 297.57, 782.97 111.14 M485.51 460.82 C546.49 386.81, 609.28 315.92, 784.29 115.88 M484.99 460.42 C547.9 386.07, 612.18 312.37, 783.61 116.92 M491.67 460.63 C592.17 345.33, 694.31 228.02, 783.41 122.47 M490.97 459.25 C587.1 347.85, 683.24 237.25, 783.8 123.48 M495.65 459.49 C564.43 377.3, 635.21 297.64, 783.41 129.21 M495.78 460.54 C556.38 390.04, 617.15 319.91, 783.5 129.27 M501.54 459.92 C563.03 389.3, 625.92 316.83, 782.77 134.56 M500.54 460.31 C579.95 366.84, 660.88 274.05, 783.13 134.99 M505.74 460.96 C567.36 392.13, 627.17 322.11, 783.24 141.34 M506.84 460.58 C615.2 336.76, 721.13 214.15, 783.58 141.58 M511.72 460.69 C579.15 379.51, 650.1 298.03, 783.98 147.58 M511.82 460.71 C620.16 335.88, 728.63 211, 783.38 147.51 M516.08 460.19 C608.79 356.57, 699.41 251.97, 784.1 153.39 M517.4 460.52 C592.56 373.31, 667.01 288.36, 783.45 153.15 M522.96 459.8 C596.53 373.3, 672.39 287.45, 783.24 158.7 M522.2 460.12 C602.73 370.16, 682.47 277.59, 783.52 159.03 M527.61 460.33 C586.09 392.14, 643.11 327.45, 783.52 165.79 M527.13 459.52 C601.54 376.77, 674.66 291.39, 783.85 165.45 M531.58 460.86 C593.97 391.04, 654.87 318.58, 783.1 172.37 M532.9 460.51 C584.65 398.86, 637.73 338.15, 783.39 171.77 M537.22 460.27 C608.16 380.99, 676.36 301.46, 783.69 176.85 M538.64 460.56 C602.38 386.75, 667.64 313.29, 784 177.81 M542.61 459.45 C628.67 358.8, 716.47 259.74, 784.39 184.01 M542.84 460.22 C606.02 388.27, 669.72 314.27, 783 183.83 M549.55 461.18 C618.19 379.81, 691.85 297.05, 784.05 190.92 M549.29 459.84 C621.26 378.35, 692.39 295.05, 784.24 189.13 M553.61 459.35 C638.97 364.18, 722.99 267.69, 783.95 195.88 M553.38 460.89 C638.87 362.44, 725.06 263.87, 783.39 195.84 M560.12 459.1 C628.4 381.23, 696.97 302.52, 782.67 201.88 M559.24 459.91 C641.96 362.48, 725.79 265.68, 782.95 202.55 M563.74 460.96 C625.41 389.71, 687.75 319.22, 784.96 206.99 M564.69 460.03 C651.69 362.82, 736.22 265.05, 783.17 207.99 M569.96 460.41 C631.83 390.18, 688.58 322.16, 784.23 215.32 M570.76 459.95 C631.39 390.2, 691.07 321.97, 783.07 214.89 M574.19 460.41 C619.69 407.25, 665.2 354.93, 783.49 219.01 M575.56 460.06 C644.48 383, 713.77 303.51, 784.18 220.89 M581.05 461 C622.48 409.69, 668.17 358.24, 782.72 227.32 M581.44 459.39 C638.17 394.53, 695.52 330.35, 782.94 226.03 M585.65 460.5 C629.12 409.41, 672.07 361.47, 783.82 231.6 M586.01 460.54 C656.14 378.97, 725.31 298.03, 782.8 233.47 M590.51 459.01 C652.61 393.27, 712.64 323.84, 783.16 239.82 M590.68 459.48 C646.45 396.42, 702.31 332.18, 784.36 239.11 M595.19 459.86 C665.25 377.26, 737.53 297.62, 784.72 245.03 M596.04 460.57 C668.55 379.73, 739.26 297.49, 783.66 245.53 M602.01 458.48 C668.81 387.81, 729.9 311.68, 784.45 250.43 M601.64 460.5 C652.17 402.13, 703.19 342.53, 783.2 251.19 M608.11 461.61 C661.23 397.06, 716.33 334.04, 783.39 255.71 M607.21 460.34 C655.27 404.3, 703.99 347.66, 782.89 256.62 M614.22 460.79 C669.55 397.11, 724.53 333.21, 783.89 265.06 M612.34 459.99 C661.23 404.95, 709.64 349.59, 783.6 264.08 M616.72 461.11 C673.28 397.05, 729.16 333.01, 784.78 268.38 M618.03 459.68 C663.02 408.87, 709.01 356.75, 784.05 269.06 M622.53 461.57 C656.58 419.17, 688.15 382.33, 782.99 276.5 M622.3 459.67 C679.44 395.35, 735.78 329.92, 784.12 275.44 M628.25 461.41 C666.13 416.86, 706.47 374.89, 785.34 281.69 M628.44 459.67 C681.89 398.86, 735.53 337.85, 783.64 280.89 M634.9 460.27 C692.6 392.91, 749.79 326.96, 783.97 287.48 M633.84 459.57 C667.63 421.2, 703.21 381.49, 784.3 288.08 M639.73 460.75 C688.23 400.41, 737.05 344.07, 784.75 294.81 M638.34 459.44 C668.54 426.77, 698.65 392.22, 783.07 294.56 M645.07 458.68 C676.94 421.19, 712.06 382.48, 782.19 298.46 M643.06 460.89 C683.89 414.87, 725.16 366.9, 784.37 300.41 M650.49 458.86 C683.57 420.75, 717.47 381.21, 782.1 304.35 M649.42 459.33 C696.94 405.25, 744.67 348.75, 783.27 305.59 M654.95 461.69 C696.76 412.56, 740.7 364.13, 782.31 311.68 M654.37 461.06 C703.76 404.81, 753.08 349.13, 784.64 312.05 M658.83 460.97 C686.49 426.03, 718.53 393.6, 782.49 316.13 M659.79 459.26 C689.35 426.29, 719.2 392.7, 784.08 317.34 M663.73 459.19 C689.42 428.56, 716.3 400.01, 785.04 324.8 M664.34 461.18 C710.65 411.23, 754.87 359.7, 782.51 324.64 M669.95 459.3 C704.41 422.92, 741.69 380.12, 782.32 328.78 M671.28 460.85 C695.76 431.98, 720.36 403.91, 783.01 329.7 M675.99 460.07 C709.86 422.17, 741.02 382.68, 783.18 334.5 M675.95 459.34 C700.38 433.04, 723.16 408.34, 783.59 337.4 M680.42 459.32 C718.73 418.11, 754.66 376.68, 782.16 343.92 M681.69 459.04 C706.72 429.24, 733.46 401.03, 784.44 342.75 M685.24 461.42 C715.43 426.3, 746.54 388.56, 782.86 349.85 M687.25 460.05 C714.82 426.87, 743.25 393.05, 783.39 349.26 M693.77 460.57 C724.47 421.39, 757.99 385.11, 783.17 356.09 M692.8 460.38 C713.34 436.01, 733.43 411.14, 783.14 353.94 M698.03 460.26 C720.23 434.09, 738.47 409.02, 781.92 361.06 M697.27 460.38 C719.03 434.01, 741.7 408.65, 784.05 359.92 M704.59 460.55 C733.43 423.67, 764.1 387.92, 781.54 365.47 M702.38 458.94 C719.22 440.12, 734 422.28, 782.79 366.98 M705.98 461.54 C725.42 441.72, 740.11 421.3, 785.27 372.33 M708 459.91 C724.82 439.7, 742.12 420.14, 783.67 372.62 M714.54 458.68 C730.51 439.33, 751.02 418.43, 784.54 378.47 M714.15 460.33 C738.43 429.77, 764.61 398.43, 784.05 378.37 M717.79 458.16 C732.08 444.81, 744.66 427.18, 784.21 386.52 M718.4 460.79 C739.21 437.04, 761.41 412.45, 783.66 384.87 M724.32 460.31 C738.71 442.17, 751.97 426.37, 785.18 392.66 M723.82 459.69 C741.87 440.73, 759.58 420.1, 783.25 390.39 M727.19 458.96 C747.93 435.89, 771.02 412.29, 783.08 398.17 M728.41 459.65 C748.42 436.23, 769.75 411.31, 783.38 397.46 M733.07 461.52 C747.76 443.43, 762.5 431.3, 785.5 401.57 M734.38 460.45 C748.4 445.11, 760.14 428.78, 783.65 403.86 M740.99 460.69 C750.85 447.44, 761 438.44, 783.33 410.02 M738.91 459.68 C749.82 448.21, 761.52 436.59, 784.17 408.98 M744.94 462.02 C752.63 448.58, 765.79 437.18, 783.99 415.41 M744.8 461.29 C758.64 444.38, 773.14 427, 782.84 416.86 M751.08 460.06 C762.4 445.28, 774.57 430.46, 782.1 421.99 M749.79 460.6 C756.81 452.26, 763.36 443.1, 784.03 420.77 M757.16 461.74 C766.86 446.6, 776.44 436.38, 782.12 426.05 M756.01 460.7 C766.1 447.02, 778.78 435.04, 783.35 427.76 M762.37 461.72 C768.59 451.54, 772.24 444.27, 783.6 431.96 M759.88 460.67 C767.81 452.47, 772.85 445.7, 782.89 433.73 M766.72 461.8 C771.59 456, 773.96 448.01, 784.51 439.6 M765.58 459.96 C770.56 454.16, 776.44 447.5, 782.7 439.73 M772.74 458.42 C776.18 456.39, 778.43 452.43, 782.55 444.65 M771.03 460.59 C773.98 456.36, 776.75 454.22, 783.95 446.97 M777.1 460.83 C778.45 457.76, 781.1 456.54, 784.65 452.72 M776.8 460.06 C778.15 458.37, 780.86 455.14, 783.88 451.84" stroke="#ced4da" stroke-width="0.5" fill="none"></path><path d="M0.71 0.69 C309.69 -0.1, 618.15 -0.65, 782.39 0.77 M-0.13 0.23 C216.54 -0.07, 432.58 0.57, 782.66 -0.15 M782.21 -0.2 C780.05 160.67, 779.92 320.97, 781.7 457.94 M782.75 -0.06 C780.14 119.73, 780.51 239.53, 782.05 457.29 M782.85 457.84 C486.33 454.31, 191.3 454.71, 0.79 457.4 M782.15 457.3 C563.91 456.1, 345.64 456.24, -0.37 457.44 M0.41 457.84 C0.93 280.58, 0.72 103.16, -0.13 0.58 M-0.11 457.67 C0.24 363.85, -0.54 269.36, 0.34 -0.07" stroke="#5f3dc4" stroke-width="1" fill="none"></path></g><g transform="translate(54.0001220703125 58.40001678466797) rotate(0 352.39996337890625 16.6675658354888)"><text x="0" y="23.335131670977617" font-family="Virgil, Segoe UI Emoji" font-size="26.363331640624512px" fill="#5f3dc4" text-anchor="start" style="white-space: pre;" direction="ltr">JS Framework to focus in 2023 based on randomness</text></g><g transform="translate(136.5221394233323 321.1999816894531) rotate(0 39.699219745789605 16.54134156074568)"><text x="0" y="23.082683121491343" font-family="Virgil, Segoe UI Emoji" font-size="26.46614649719307px" fill="#1864ab" text-anchor="start" style="white-space: pre;" direction="ltr">React</text></g><g transform="translate(294.9219615944173 325.8314361740579) rotate(0 22.496224522614114 16.54134156074568)"><text x="0" y="23.082683121491343" font-family="Virgil, Segoe UI Emoji" font-size="26.466146497193073px" fill="#2b8a3e" text-anchor="start" style="white-space: pre;" direction="ltr">Vue</text></g><g transform="translate(429.1052758742246 326.8901870326958) rotate(0 41.02252707064929 16.54134156074568)"><text x="0" y="23.082683121491343" font-family="Virgil, Segoe UI Emoji" font-size="26.466146497193073px" fill="#e67700" text-anchor="start" style="white-space: pre;" direction="ltr">Svelte</text></g><g transform="translate(568.0526257527576 329.27212406378925) rotate(0 29.774414809342204 16.54134156074568)"><text x="0" y="23.082683121491343" font-family="Virgil, Segoe UI Emoji" font-size="26.466146497193073px" fill="#364fc7" text-anchor="start" style="white-space: pre;" direction="ltr">Solid</text></g><g stroke-linecap="round"><g transform="translate(114.29051175107463 418.86004611044166) rotate(0 280.2447800337909 -1.5480401294547619)"><path d="M-0.68 -0.18 C203.36 0.04, 407.9 -0.84, 560.6 -2.7 M-0.14 0.33 C205.87 -2.03, 412.29 -3.51, 561.17 -3.42" stroke="#c92a2a" stroke-width="1" fill="none"></path></g></g><mask></mask><g transform="translate(275.4693277653266 369.7653362813216) rotate(0 19.849609872894803 16.54134156074568)"><text x="0" y="23.082683121491343" font-family="Virgil, Segoe UI Emoji" font-size="26.46614649719307px" fill="#2b8a3e" text-anchor="start" style="white-space: pre;" direction="ltr">Win</text></g><g transform="translate(325.49032849136756 371.88263607792396) rotate(0 19.849609872894803 16.54134156074565)"><text x="0" y="23.082683121491343" font-family="Virgil, Segoe UI Emoji" font-size="26.46614649719307px" fill="#2b8a3e" text-anchor="start" style="white-space: pre;" direction="ltr">Win</text></g><g transform="translate(132.81681429910975 368.44202895646197) rotate(0 30.436068471772046 16.54134156074565)"><text x="0" y="23.082683121491343" font-family="Virgil, Segoe UI Emoji" font-size="26.466146497193073px" fill="#d9480f" text-anchor="start" style="white-space: pre;" direction="ltr">Lose</text></g><g transform="translate(570.0375059717777 366.0601726936378) rotate(0 30.436068471772046 16.54134156074565)"><text x="0" y="23.082683121491343" font-family="Virgil, Segoe UI Emoji" font-size="26.466146497193073px" fill="#d9480f" text-anchor="start" style="white-space: pre;" direction="ltr">Lose</text></g><g transform="translate(333.5999755859375 115.90013122558594) rotate(0 59 45.5)"><text x="0" y="64" font-family="Virgil, Segoe UI Emoji" font-size="71.83997802734376px" fill="#2b8a3e" text-anchor="start" style="white-space: pre;" direction="ltr">Vue</text></g><g transform="translate(438.2362094913333 368.7066661909531) rotate(0 30.436068471772046 16.54134156074565)"><text x="0" y="23.082683121491343" font-family="Virgil, Segoe UI Emoji" font-size="26.466146497193073px" fill="#d9480f" text-anchor="start" style="white-space: pre;" direction="ltr">Lose</text></g><g stroke-linecap="round"><g transform="translate(328.95181328139836 316.965301327979) rotate(0 19.909345051298317 -46.0729206477356)"><path d="M1.81 1.44 C13.54 -32.26, 29.3 -68, 38.32 -93.11 M-0.86 0.17 C12.76 -25.37, 22.37 -51.33, 40.68 -93.59" stroke="#c92a2a" stroke-width="1" fill="none"></path></g><g transform="translate(328.95181328139836 316.965301327979) rotate(0 19.909345051298317 -46.0729206477356)"><path d="M40.9 -62.19 C39.15 -73.27, 41.2 -86.23, 38.83 -92.64 M38.24 -63.47 C40.73 -71.86, 39.82 -80.35, 41.19 -93.12" stroke="#c92a2a" stroke-width="1" fill="none"></path></g><g transform="translate(328.95181328139836 316.965301327979) rotate(0 19.909345051298317 -46.0729206477356)"><path d="M22.02 -70.21 C27.01 -78.36, 35.76 -88.48, 38.83 -92.64 M19.35 -71.49 C26.91 -77.53, 31.15 -83.83, 41.19 -93.12" stroke="#c92a2a" stroke-width="1" fill="none"></path></g></g><mask></mask></svg>