<svg version="1.1" xmlns="http://www.w3.org/2000/svg" viewBox="0 0 894.4000549316406 681.6000213623047" width="894.4000549316406" height="681.6000213623047" filter="invert(93%) hue-rotate(180deg)">
  <!-- svg-source:excalidraw -->
  
  <defs>
    <style class="style-fonts">
      @font-face {
        font-family: "Virgil";
        src: url("https://excalidraw.com/Virgil.woff2");
      }
      @font-face {
        font-family: "Cascadia";
        src: url("https://excalidraw.com/Cascadia.woff2");
      }
    </style>
  </defs>
  <rect x="0" y="0" width="894.4000549316406" height="681.6000213623047" fill="#ffffff"></rect><g stroke-linecap="round" transform="translate(10 10) rotate(0 437.2000274658203 330.80001068115234)"><path d="M0 0 C0 0, 0 0, 0 0 M0 0 C0 0, 0 0, 0 0 M-0.52 7.08 C1.12 3.79, 3.56 1.27, 4.2 0.69 M0.05 6.17 C1.32 5, 2.62 2.7, 4.62 0.18 M-0.41 12.16 C1.18 10.64, 6.03 5.44, 11.93 0.12 M0.23 12.73 C3.55 8.69, 6.91 5.88, 10.84 0.15 M1.1 17.01 C5.57 12.88, 6.43 9.01, 14.5 0.51 M-0.12 18.99 C4.62 12.71, 9.78 6.35, 15.23 0.28 M-0.2 22.71 C3.78 19.57, 8.81 13.84, 20.49 -0.54 M-0.63 24.11 C4.57 19.86, 9.42 14.67, 20.41 0.32 M1.77 28.9 C7.17 24.38, 12.17 14.23, 25.07 2.11 M0.63 31.43 C7.67 23.53, 14.21 15.41, 25.88 0.4 M0.9 38.86 C6.42 30.94, 13.42 22.87, 32.98 0.79 M-1.21 36.36 C9.71 24.44, 21.28 13.49, 31.16 -1.09 M1.4 43.05 C8.46 31.85, 20.34 19.44, 38.31 -1.52 M0.92 43.07 C12.14 28.18, 24.49 14.59, 37.27 0.83 M0.43 50.87 C9.18 37.75, 16.32 30.72, 42.34 0.12 M0.73 49.1 C16.11 30.68, 30.7 13.81, 42.65 0.06 M1.36 54.66 C16.12 38.55, 32.05 18.44, 48.89 0.05 M-0.13 54.38 C20.26 32.38, 37.33 11.02, 46.62 -0.3 M1.12 61.18 C17.13 43.7, 29.75 26.65, 54.24 1.33 M-0.63 61.57 C12.27 46.77, 25.54 32.91, 53.33 0.4 M-0.57 67.64 C20.22 46.85, 41.26 24.01, 58.5 -0.83 M-1.1 67.11 C14.86 48.24, 31.34 29.77, 57.15 0.64 M1.45 73.39 C17.27 53.75, 30.4 37.01, 63.45 0.25 M-0.47 73.78 C24.63 46.36, 47.01 19.51, 64.64 -0.93 M0.43 79.55 C23.79 51.61, 48.05 23.15, 67.94 2.15 M0.39 79.29 C16.89 60.03, 33.92 39.82, 68 0.82 M-1.06 85.06 C29.19 50.17, 57.52 19.25, 73.77 0.67 M0.01 85.28 C26.07 54.21, 53.53 23.36, 74.98 -0.22 M0.25 90.16 C14.88 70.1, 34.76 49.98, 81.04 1.23 M-0.29 91.72 C22.58 66.76, 44.4 40.46, 80.32 0.94 M1.52 96.43 C22.64 68.25, 47.26 44.23, 86.06 -1.73 M-1.09 97.89 C31.4 60.3, 62.51 25.82, 85.71 0.72 M0.51 102.44 C21.2 81.32, 38.96 60.31, 88.71 -1.42 M-0.15 103 C34.52 66.4, 67.71 28.3, 89.2 -0.76 M-1.83 111.41 C39.8 65.34, 77.59 21.36, 94.28 0.7 M0.27 110.72 C26.68 78.51, 53.55 47.92, 95.17 0.66 M-0.1 115.28 C37.37 71.39, 77.55 26.11, 100.9 -1.69 M0.76 116.26 C36.59 73.47, 72.35 32.48, 99.73 -0.52 M-1.06 122.12 C36.06 81.12, 70.71 42.59, 105.4 -0.45 M0.14 122.66 C39.86 76.37, 77.28 32.09, 106.68 -1.13 M1.52 128.25 C39.69 81.91, 80.94 33.31, 110.66 -1.53 M0.74 127.9 C42.1 81.81, 81.35 34.99, 110.93 0.96 M1.6 133.86 C39.65 87.34, 82.83 41.29, 114.85 -0.91 M-0.83 133.38 C25.46 105.23, 50.63 76.63, 115.84 -0.09 M-0.52 138.64 C25.98 107.62, 55.73 77.43, 122.07 -0.94 M-1.02 140.6 C41.8 91.24, 82.09 45.04, 121.83 0.5 M-0.99 145.87 C26.98 111.27, 56.61 75.9, 125.04 1.27 M0 146.09 C52.21 90.2, 100.92 31.67, 127.21 0.63 M-0.89 153.73 C28.16 119.25, 57.38 90.33, 134.1 -1.81 M-0.26 151.89 C38.99 107.67, 77.59 63.86, 133.31 0.4 M-1.43 159.93 C33.66 120.9, 66.01 81.03, 137.52 2 M0.48 158.32 C31.6 121.56, 63.11 85.78, 138.26 0.61 M-0.84 164.6 C49.21 107.7, 96.5 52.88, 141.73 -0.78 M0.67 164.79 C43.83 115.92, 86.46 66.07, 142.65 0.61 M0.05 170.19 C47.4 111.94, 97.15 58.14, 147.61 1.16 M0.66 170.68 C55.27 107.25, 110.32 43.75, 148.41 -0.51 M-0.36 177.31 C43.41 128.12, 86.41 80.41, 153.17 0.2 M0.82 177.27 C42.07 128.2, 84.16 80.38, 154.21 0.58 M1.14 181.89 C62.23 111.87, 123.42 42.24, 159.25 1.5 M0.43 183.67 C39.49 137.4, 79.85 91.85, 159.5 0.64 M0.71 187.96 C42.53 141.3, 81.8 96.75, 165.07 0.91 M-0.59 188.74 C63.55 115.08, 127.66 42, 165.22 -0.52 M-0.45 194.1 C57.95 128.34, 116.25 62.31, 170.2 -0.92 M0.24 195.07 C41.3 149.59, 80.41 102.17, 169.14 0.99 M-1.09 200.41 C46.82 143.86, 95.16 89.92, 173.78 -0.47 M0.01 201.68 C46.25 148.73, 92.24 96.17, 174.85 -0.64 M-1.25 207.47 C45.95 151.3, 95.88 96.13, 179.3 -0.29 M0.47 207.25 C47.48 153.38, 93.21 100.45, 180.63 -0.16 M-0.58 213.94 C38.24 170.41, 73.43 128.89, 184.52 -0.98 M0.09 213.1 C69.2 132.73, 139.81 52.3, 185.37 0.14 M0.44 218.79 C60.89 150.64, 119.08 82.28, 189.35 -0.58 M-0.75 219.69 C74.28 132.51, 147.89 47.51, 190.08 0 M-0.75 224.28 C47.68 170.82, 96.93 115.23, 195.28 0.45 M0.2 226.03 C51.31 163.48, 105.41 102.75, 195.81 -0.07 M-1.43 233.2 C65.73 157.16, 129.72 82.02, 200.67 0.46 M-0.28 232.32 C55.34 168.09, 109.74 105.98, 200.62 -0.08 M-0.6 236.19 C47.72 182.77, 94.26 127.72, 206.49 0.4 M0.09 237.78 C66.28 161.9, 131.85 85.08, 206.72 -0.41 M-0.58 244.6 C54.45 181.13, 106.53 120.64, 211.48 -0.8 M-0.01 244.01 C59.42 175.22, 118.68 106.73, 211.43 0.05 M0.79 249.05 C83.51 153.91, 164.88 59.64, 217.84 0.01 M-0.45 249.9 C78.76 159.23, 158.47 67.02, 217.18 -0.45 M0.31 256.44 C76.95 170.31, 152.2 83.58, 223.61 0.49 M0.32 255.53 C82.24 162.35, 163.24 69.11, 222.46 -0.23 M-1.09 262.72 C69.7 183.44, 138.52 102.95, 228.48 -1.1 M-0.4 261.9 C65.54 185.44, 132.03 108.95, 227.69 -0.13 M0.87 267.78 C77.54 181.64, 152.78 95.46, 234.18 0.72 M0.91 268.52 C47.6 212.51, 96.51 156.76, 233 0.19 M-1.11 274.06 C55.29 212.94, 107.57 152.86, 238.95 1.23 M-0.06 274.48 C60.54 206.61, 120.33 137.98, 238.02 -0.2 M-0.42 279.78 C57.38 213.11, 116.77 144.42, 243.87 -0.75 M0.01 281.11 C64.66 206.73, 128.24 131.96, 244.27 0.12 M-0.95 286.97 C85.58 190.11, 170.42 91.94, 248.6 -0.1 M0.25 286.71 C59.22 218.92, 117.72 152.14, 248.59 -0.11 M-1.16 292.41 C58.74 225.04, 118.07 157.86, 253.9 0.26 M0.37 292.87 C80.5 197.74, 163.09 103.53, 254.33 0.03 M0.89 297.76 C70.98 216.66, 141.28 135.92, 259.2 1.31 M0.81 298.1 C74.77 211.75, 150.21 124.36, 259.15 0.07 M0.62 304.24 C85.95 207.97, 170.38 111.39, 265.86 0.4 M0.27 305.19 C89.93 201.06, 180.43 97.74, 265.5 -0.49 M-1.06 310.71 C55.99 245.17, 114.41 178.63, 270.08 0.22 M-0.46 311.52 C87.19 209.99, 176.37 108.66, 270.01 0.45 M0.16 316.65 C62.81 245.13, 127.85 169.81, 275.23 -0.96 M-0.14 317.25 C59.54 247.15, 120.52 177.58, 275.91 -0.43 M-0.47 322.99 C103.65 203.52, 206.78 84.29, 280.16 -0.38 M0.22 323.26 C84.04 226.76, 168.45 130.53, 280.37 -0.14 M1.19 329.69 C114.06 197.13, 227.93 66.44, 286.97 -0.31 M0.3 329.19 C63.13 258.42, 125.1 186.75, 286.58 0.28 M0.63 336.21 C97.57 221.47, 196.59 107.57, 292.07 0.9 M-0.25 335.54 C61.71 264.43, 123.59 192.38, 291.54 0.09 M-0.11 341.25 C98.31 226.99, 197.64 112.61, 297.89 -0.58 M-0.09 341.64 C104.03 222.13, 207.85 102.69, 296.87 0.03 M-0.23 347.28 C96.89 238.71, 191.24 130.55, 301.87 0.47 M0.33 346.99 C100.94 230.24, 202.27 114.62, 301.75 0.47 M0.05 353.89 C79.94 262.03, 161.54 169.23, 307.75 -0.57 M0.07 353.68 C113.55 222.72, 227.92 90.97, 307.6 -0.42 M0.76 359.03 C91.31 254.41, 180.57 151.51, 313.06 -0.13 M0.63 359.39 C117.71 225.16, 235.04 89.85, 312.24 0.28 M0.88 365.54 C94.64 258.42, 188.27 149.3, 318.54 -1.03 M0.18 365.49 C68.17 289.83, 134.22 213.82, 318.16 -0.21 M-0.27 372.76 C81.39 281.27, 161.05 188.59, 323.06 -0.53 M0.16 371.79 C98.31 258.64, 198.01 143.92, 323.13 0.39 M0.25 378 C79.95 285.67, 161.28 192.79, 329.02 -0.96 M0.25 378.02 C107.22 253.54, 214.3 130.43, 329.22 -0.08 M0.59 384.23 C126.51 236.22, 253.53 90.27, 334.14 0.29 M-0.03 383.9 C118.64 248.35, 236.9 113.61, 333.71 -0.24 M0.75 390.4 C75.3 304.46, 150.97 216.56, 340.19 0.42 M0.3 389.58 C117.94 252.84, 236.55 116.22, 339.42 -0.41 M0.71 396.46 C94.38 288.99, 187.05 181.45, 344.81 -0.62 M0.31 396.18 C131.43 244.57, 262.99 93.1, 344.16 0.4 M0.52 401.88 C79.74 309.03, 160.01 216.25, 349.54 -0.04 M-0.35 402.26 C88.62 300.68, 176.92 198.67, 349.56 0.14 M0.15 408.4 C101.56 290.82, 203.83 172.49, 354.87 -0.6 M0.05 408.58 C117.46 274.17, 234.17 140.55, 355.4 0.1 M-0.62 414.88 C133.77 261.03, 268.46 107.25, 360.18 0.2 M-0.4 414.91 C133.08 260.71, 266.67 108, 360.35 0.08 M0.36 421.32 C79.01 330.14, 158.53 237.17, 365.33 0.57 M-0.6 421.22 C134.81 266.41, 270.13 111.34, 365.96 -0.32 M-0.44 426.86 C93.24 321.56, 185.51 214.83, 370.48 1.08 M0.26 426.87 C141.61 264.19, 282.4 103.17, 370.96 0.4 M0.37 432.62 C88.52 332.89, 175.18 233.68, 376.81 0.69 M0.15 432.98 C126.34 285.89, 254.6 138.67, 376.73 -0.23 M0.41 438.53 C134.37 283.61, 269.8 129.36, 381.49 0.2 M-0.03 438.9 C119.3 299.72, 240.36 160.56, 381.57 -0.09 M-0.72 445.15 C112.17 314.4, 226.55 183.83, 386.39 -0.07 M0.08 445.18 C126.52 298.78, 253.37 152.34, 387.01 0.01 M0.24 452.12 C111.1 324.26, 220.95 197.72, 391.49 -0.09 M-0.37 451.56 C145.62 281.11, 292.54 111.93, 391.99 0.09 M0.46 457.76 C147.74 287.08, 297.6 115.21, 397.16 -0.78 M0.43 457.03 C110.65 333.06, 220.08 207.52, 397.67 -0.13 M0.53 463.54 C129.94 314.47, 259.41 165.65, 402.37 0.95 M-0.33 463.74 C119.09 327.84, 236.95 192.06, 402.38 0.18 M-0.3 469.29 C96.88 357.72, 193.62 245.98, 408.61 0.3 M0.41 469.53 C153.41 294.05, 304.99 119.62, 407.98 0.2 M0.46 474.99 C108.25 350.25, 215.88 225.92, 413.25 0.82 M0.16 475.62 C151.62 302.88, 303.02 128.42, 413.29 0.46 M-1.02 482.49 C101.37 364.97, 204.14 247.57, 418.29 -0.75 M-0.21 482.28 C113.14 353.39, 225.78 224.49, 418.8 0.09 M-0.56 487.05 C165.57 300.02, 328.62 111.21, 423.69 0.2 M0.2 488.03 C104.83 367.26, 207.5 249.1, 424.08 -0.18 M-0.54 494.63 C146.55 321.67, 296.79 150.09, 429.75 -0.65 M-0.13 494.4 C113.82 365.82, 225.46 236.83, 429.36 0.03 M-0.24 499.5 C119.7 361.69, 239.89 223.67, 435.26 -0.25 M0.48 500 C139.8 338.78, 281.69 176.07, 434.49 -0.24 M-0.85 506.84 C135.01 350, 268 196.63, 439.8 -0.16 M-0.42 505.88 C135.78 349.73, 270.07 194.82, 440.5 -0.47 M-0.58 512.03 C92.95 407.27, 185 302.29, 445.16 0.1 M-0.57 512.76 C164.48 322.16, 328.77 133.13, 445.42 0.38 M0.36 517.84 C122.35 379.99, 241.2 242.07, 451.23 -0.86 M-0.3 517.8 C92.34 411.05, 186.64 303.28, 450.62 -0.49 M-0.33 524.45 C159.65 339.23, 319.63 155.07, 455.8 0.27 M-0.19 524.25 C125.91 378.36, 253.2 232.51, 455.81 -0.37 M1 529.54 C174.03 330.69, 349 130.26, 461.68 -0.35 M0.58 529.83 C104.37 410.11, 208.56 290.03, 461.35 -0.11 M-0.63 536.42 C177.77 330.13, 357.02 123.5, 466.85 -0.77 M0.04 536.92 C147.78 364.83, 295.65 195.09, 466.53 -0.38 M0.38 542.98 C184.22 329.87, 367.96 119.75, 470.96 0.48 M-0.09 542.6 C127.04 394.17, 255.21 245.87, 471.2 0.37 M-0.7 549.21 C127.95 398.15, 258.26 248.72, 476.77 0.74 M-0.06 548.25 C143.02 385.66, 284.81 222.44, 477.28 0.31 M0.17 555.3 C115.49 422.04, 229.61 291.39, 482.07 0.88 M0.15 554.72 C150.33 380.11, 301.5 206.43, 482.27 0.61 M-0.17 560.05 C137.71 403.56, 273.96 246.6, 487.67 0.54 M0.15 560.36 C189.69 343.16, 378.45 125.7, 487.33 0.27 M0.52 567.49 C129.35 418.11, 258.38 269.52, 492.46 -0.08 M-0.24 567.23 C178.35 359.47, 359.21 152.32, 492.28 -0.08 M0.32 574.13 C184.3 362.57, 368.82 148.73, 498.86 -0.88 M-0.17 573.51 C153.41 397.84, 306.14 222.3, 497.94 -0.14 M-0.55 579.77 C201.4 348.58, 401.71 119.04, 503.06 -0.1 M-0.16 579.08 C151.65 402.36, 304.62 225.66, 503.57 -0.12 M0.12 585.53 C103.35 467.53, 205.39 350.14, 508.5 0.18 M0.1 585.53 C168.05 391.56, 335.06 198.9, 509.16 -0.32 M0.21 590.71 C196.66 366.75, 391.79 143.61, 514.45 0.68 M0.3 591 C129.51 440.82, 259.4 292.33, 513.68 0.29 M-0.56 597.77 C170.6 401.67, 340.97 204.48, 519.96 -0.63 M0.09 597.92 C147.66 430.25, 293.01 262.79, 519.81 -0.28 M-0.57 604.42 C172.14 400.4, 347.43 200.38, 525.2 -0.29 M-0.03 603.89 C201.54 368.62, 404.48 135.54, 524.95 -0.05 M0.36 609.6 C111.13 484.76, 221.39 358.42, 530.63 0.32 M0.38 609.63 C179.86 400.07, 359.83 192.84, 529.93 -0.6 M-0.7 616.33 C205.18 379.44, 411.7 140.98, 535.13 0.01 M0.02 615.8 C181.54 406.76, 362.84 197.28, 534.89 -0.12 M-0.21 622.14 C204.66 383.98, 411.46 146.36, 541.55 0.24 M-0.07 621.82 C129.89 473.06, 260.97 322.6, 540.73 -0.07 M0.5 627.29 C141.95 464.48, 284.84 301.19, 545.28 0.57 M0.07 628.06 C218.21 381.48, 434.26 133.1, 545.8 0.12 M0.02 634.84 C164.14 440.99, 331.81 248.95, 550.96 -0.48 M-0.56 634.64 C151.11 464.54, 300.15 293, 551.4 -0.44 M-0.02 640.6 C154.96 464.98, 309.66 286.86, 556.29 -0.43 M-0.04 639.86 C164.2 451.79, 326.41 265.81, 556.78 -0.3 M0.11 647.25 C172.11 446.68, 345.28 248.07, 562.33 0.11 M-0.03 646.57 C148.05 474.84, 297.15 303.42, 562.32 -0.06 M-0.09 651.51 C198.95 421.23, 398.49 192.55, 566.87 0.75 M-0.07 652.2 C122.91 507.96, 246.26 367.09, 566.9 -0.13 M0 658.79 C138.72 499.22, 278.2 338.02, 573.17 -0.87 M-0.21 658.16 C125.3 516.72, 250.37 372.57, 572.67 -0.28 M1 663.35 C230.11 400.08, 458.49 137.27, 576.92 0.63 M1.9 662.38 C127.36 516.78, 252.19 372.6, 577.64 0.12 M6.46 662.92 C146.44 500.42, 286.48 338, 582.34 0.87 M6.78 663.1 C162.37 479.39, 320.38 297.64, 582.96 0.15 M12.55 662.25 C198.11 449.4, 385.46 234.94, 587.58 -0.29 M12.37 662.77 C234.83 406.31, 458.41 148.85, 588.03 -0.28 M16.7 662.85 C216.71 437.96, 412.89 210.13, 592.7 0.88 M17.21 663.02 C205.46 445.34, 397.19 224.83, 593.63 0.38 M22.42 661.98 C160.43 505.26, 299.89 344.66, 599.61 -0.76 M22.75 662.38 C185.79 478.09, 346.77 292.75, 598.74 0.16 M27.85 662.48 C182.41 486.08, 338.37 307.63, 603.97 0.18 M27.64 663.3 C167.93 503.35, 308.15 342.95, 603.58 0.49 M32.89 662.48 C175.89 495.92, 319.37 330.71, 610.2 -0.31 M33.21 662.24 C201.84 469.37, 372.49 273.57, 609.57 -0.46 M38.99 663.57 C182.31 495.67, 327.97 329.58, 615.35 0.6 M38.54 663 C157.77 525.1, 279.16 386.17, 614.32 -0.03 M43.45 662.1 C191.37 493.6, 338.15 325.51, 620.95 0.67 M44.34 662.83 C212.49 470.69, 379.25 278.21, 620.36 -0.2 M48.83 662.22 C176.39 519.89, 300.54 377.44, 624.86 0.76 M48.8 662.58 C277.09 400.71, 504.45 140.17, 625.37 0.16 M54.97 663.09 C254.39 432.88, 455.95 200.35, 631.51 -0.63 M54.04 663.17 C269.07 414.01, 484.65 165.78, 630.9 -0.55 M60.51 663.34 C277.14 410.64, 497.65 157.06, 635.75 0.82 M59.65 663.13 C236.02 462.56, 410.81 261.09, 635.82 0.2 M64.32 663.83 C200.33 509.42, 332.99 356.38, 641.14 0.16 M64.96 663.44 C241.91 457.48, 420.26 251.95, 641.79 0.03 M70.39 662.99 C222.36 485.79, 377.16 307, 646.9 0.96 M70.74 663.14 C188.22 526.74, 304.4 392.56, 646.75 0.22 M74.81 663.33 C302.32 402.91, 526.46 143.96, 651.91 0.2 M75.79 663.1 C255.98 458.16, 436.19 252.01, 652 -0.28 M80.86 662.81 C248.49 468.94, 414.59 278.01, 657.61 -0.31 M80.9 662.51 C258.96 456.41, 437.22 251.16, 657.24 -0.21 M86.04 663.01 C268.55 451.66, 450.78 241.74, 662.35 -1.01 M86.25 663.45 C232.25 495.91, 375.53 330.84, 662.9 -0.33 M92.33 662.04 C295.38 424.94, 501.46 188.34, 667.59 0.34 M91.34 662.56 C319.24 402.03, 545.13 142.05, 667.55 0.3 M96.43 662.7 C266.05 467.09, 436.35 272.04, 673.79 0.04 M96.44 662.82 C235.36 500.46, 375.37 338.81, 673.44 0.06 M101.64 662.25 C264.18 479.22, 425.58 292.28, 678.6 -0.22 M102.48 662.82 C320.77 413.99, 537.36 164.48, 678.33 0.12 M108.04 663.77 C224.41 528, 344.44 391.18, 683.99 -0.39 M107.67 662.95 C262.8 486.02, 418.2 307.02, 684.17 -0.71 M113.24 662.64 C321.67 421.8, 532.22 178.71, 689.61 -0.33 M113.09 662.64 C309.48 437.79, 503.52 214.12, 689.01 0.25 M118.53 662.77 C310.37 442.24, 499.96 223.66, 695.13 -0.45 M117.63 663.38 C322.37 428.61, 527.84 191.99, 694.82 -0.43 M123.23 663.12 C244.55 522.65, 369.14 380, 700.02 0.04 M123.56 662.77 C298.43 462.81, 473.78 261.19, 699.41 0.31 M129.21 662.65 C326.01 433.61, 525.51 204.68, 705.18 0.03 M128.37 663.09 C350.49 408.32, 571.37 153.95, 704.43 0.46 M133.7 662.84 C325.14 443.52, 513.94 226.72, 709.65 -0.7 M134.25 662.98 C281.29 491.65, 431.5 319.81, 710.54 0.11 M138.6 663.1 C326.12 453.96, 510.78 240.61, 715.28 -0.26 M139.17 662.84 C301.61 474.53, 467.35 284.31, 714.84 0.68 M144.81 663.28 C315.46 463.23, 487.71 265.83, 720.35 0.63 M144.73 662.85 C342.27 436.64, 539.19 210.35, 720.6 -0.29 M150.45 662.22 C337.85 445.96, 525.66 229.18, 725.83 0.4 M149.66 662.81 C295.69 495.25, 441.31 328.19, 725.87 0.25 M154.72 661.91 C282.46 512.8, 410.27 366.4, 731.21 -0.81 M155.32 662.57 C290.06 504.44, 426.05 348.82, 731.39 0.14 M160.93 662.85 C295.2 511.23, 429.34 357.39, 735.93 0.57 M160.7 662.62 C347.2 448.84, 531.72 236.17, 736.41 0.6 M165.34 662.53 C333.64 469.05, 500.38 278.09, 741.7 -0.29 M165.71 662.91 C389.53 408.31, 612.67 152.48, 741.85 -0.53 M171.44 663.04 C343.68 466.94, 515.49 270.41, 747.48 -0.45 M171.09 662.87 C395.86 409.47, 618.11 153.14, 746.91 -0.19 M175.41 662.66 C397.08 409.42, 619.88 153.45, 753.37 0.5 M175.91 662.97 C397.9 404.84, 620.69 147.59, 752.97 -0.03 M182.2 662.38 C404.83 405.1, 625.63 151.39, 757.22 0.64 M181.64 662.78 C407.57 399.38, 634.76 137.25, 757.84 0.57 M186.1 662.84 C356.33 467.8, 526.19 271.82, 763.35 -0.16 M186.38 663.14 C410.18 406.74, 633.25 149.54, 763.68 0.14 M192.27 662.06 C395.57 429.18, 597.24 196.2, 767.91 -0.08 M191.97 662.6 C389.53 431.15, 589.86 200.6, 768.03 -0.25 M197.29 663.64 C367.19 466.38, 537.76 269, 774.02 -0.81 M197.42 662.85 C363.78 472.87, 529.79 280.98, 774.13 -0.54 M202.71 663.24 C347.08 498.13, 491.48 332.93, 778.74 0.63 M202.84 662.77 C375.06 467.61, 544.74 271.52, 778.72 0.47 M208.44 663.21 C421.87 417.83, 635.48 171.54, 784.98 -0.02 M207.69 662.98 C405.8 432.82, 605.09 203.89, 784.82 0.05 M213.43 662.25 C406.44 442.36, 599.6 221.88, 790.12 0.38 M213.84 662.35 C415.19 433.47, 615.03 203.85, 789.52 0.05 M218.68 663.66 C443.65 404.69, 669.4 145.12, 794.66 0.42 M218.26 663.38 C431.14 422.47, 641.21 180.93, 795.08 -0.56 M224.75 663.4 C368.85 497.91, 512.76 332.64, 800.48 0.78 M224.12 663.02 C375 489.6, 523.79 318.62, 800.03 0.42 M229.95 663.1 C417.08 446.91, 605.92 229.3, 806.7 0.29 M229.39 662.93 C407.03 460.44, 584.46 256.37, 806.2 -0.64 M234.22 662.97 C374.2 503.85, 511.46 344.71, 811.09 -0.61 M234.83 662.67 C377.44 502.12, 518.99 339.84, 810.64 0.12 M240.59 663.59 C380.81 497.19, 525.27 333.15, 816.52 0.11 M239.72 662.73 C407.84 473.02, 574.38 281.96, 816.01 0.12 M246.21 662.01 C446.27 432.41, 647 201.33, 821.24 -0.65 M245.9 662.59 C458.05 415.31, 672.15 169.84, 821.74 -0.09 M250.21 663.17 C434.75 449.88, 619.59 237.02, 826.74 -0.31 M250.28 662.89 C464.94 418.2, 680.62 170.46, 826.3 -0.04 M255.93 663.17 C377.45 521.44, 499.98 380.92, 831.42 -0.2 M256.06 662.7 C463.21 425.86, 667.06 191.18, 832.09 -0.46 M261.2 662.27 C377.8 527.1, 495.24 391.89, 836.81 -0.5 M261.29 663.32 C484.33 408.78, 705.06 154.89, 837.26 0.43 M266.99 662.64 C421.66 483.96, 577.08 305, 843.39 0.62 M266.82 662.32 C476.8 420.26, 688.78 176.37, 842.84 0.22 M272.41 663.69 C417.99 492.17, 566.95 320.74, 847.29 0.82 M272.14 662.95 C440.77 470.27, 607.96 277.28, 847.74 0.1 M276.38 663.77 C480.52 429.84, 683.12 198.57, 853.7 -0.72 M277.02 663.34 C411.35 507.1, 547.79 350.11, 853.53 -0.28 M282.3 662.98 C479.48 440.26, 673.32 217.35, 859.15 0.1 M282.23 662.93 C411.71 513.29, 540.86 365.3, 858.59 0.17 M286.7 662.8 C452.25 476.17, 616.2 287.91, 863.34 0.42 M287.05 663.21 C425.27 503.9, 562.22 346.7, 863.7 -0.34 M293.75 662.9 C520.55 400.96, 748.52 138.58, 868.99 0.19 M293.34 662.61 C440.13 490.14, 590.26 318.15, 869.42 0.46 M297.39 663.02 C467.13 467.29, 636.67 271.46, 874.52 -0.12 M298.14 663.43 C470.48 465.23, 644.74 264.75, 874.46 -0.15 M302.88 662.17 C462 476.99, 624.33 290.03, 874.99 6.72 M304.03 662.76 C439.28 510.87, 572.27 357.39, 874.2 6.23 M308.97 663.73 C425.69 525.1, 544.21 389.9, 874.72 11.87 M308.53 663.39 C428.21 523.19, 549.68 383.66, 874.15 12.75 M315.02 663.48 C508.67 442.62, 702.51 219.8, 874.59 17.69 M314.46 662.36 C499.02 449.31, 683.14 237.5, 874.91 18.52 M319.19 662.63 C452.72 505.05, 588.43 350.34, 874.01 24.97 M319.29 663.47 C436.19 528.27, 553.68 392.94, 874.09 25.02 M325.53 662.3 C445.6 524.13, 567.7 383.57, 874.13 29.79 M324.76 662.6 C479.95 480.77, 637.11 300.2, 874.4 30.13 M329.42 663.76 C448.82 528.28, 566.48 392.02, 874.43 36.49 M330.24 663.47 C542.7 420.71, 752.09 179.25, 874.69 36.67 M335.81 662.88 C471.63 502.74, 610.95 342.57, 874.43 43.34 M335.88 662.9 C550.48 416.28, 764.29 170.24, 873.98 43.28 M339.86 663.16 C523.44 455.35, 704.97 246.27, 875.08 48.55 M340.81 663.4 C491.18 489.87, 640.18 318.95, 874.62 48.37 M346.85 662.23 C497.29 487.14, 649.5 313.03, 873.93 54.72 M346.32 662.46 C508.43 479.3, 669.51 293.42, 874.13 54.95 M351.14 663.24 C470.4 525.62, 587.78 391.21, 874.71 60.84 M350.81 662.69 C501.95 491.43, 652.27 317.64, 874.93 60.61 M356.1 662.96 C482.75 517.97, 609.31 370.76, 874.34 67.36 M356.98 662.72 C464.7 536.44, 574.1 410.83, 874.53 66.96 M361.1 663.18 C505.99 497.76, 648.67 332.92, 874.21 72.99 M362.03 663.37 C496.14 509.72, 631.33 355.27, 874.41 73.62 M367.02 662.02 C548.92 449.52, 732.94 239.08, 875.22 79.14 M367.17 662.52 C500.84 509.4, 635.41 354.13, 874.32 79.02 M372.83 663.73 C522.9 489.21, 677.33 312.8, 874.49 86.33 M372.66 662.89 C526.5 487.51, 679.91 310.1, 874.6 85.21 M377.9 661.97 C560.82 454.43, 741.92 246.2, 874.97 91.07 M377.75 662.92 C562.69 450.8, 748.09 237.88, 874.63 91.05 M383.41 662.44 C534.61 489.67, 684.83 316.96, 874.09 97.24 M382.88 662.92 C565.71 449.65, 750.25 237.14, 874.26 97.64 M388.24 662.93 C524.34 506.83, 659.82 351.7, 874.96 103.33 M388.8 662.38 C579.93 445.75, 768.76 228.21, 873.9 103.92 M393.57 663.2 C529.32 507.76, 661.2 354.46, 875.06 110.1 M394.03 662.93 C530.09 507.01, 664.44 352.71, 874.39 109.85 M398.12 663.34 C502.35 542.61, 607.38 421.8, 874.15 115.38 M398.9 663.15 C556.49 484.95, 713.37 304.61, 874.54 116.45 M404.46 663.49 C503.73 546.01, 605.97 429.02, 874.26 122.1 M404.67 662.6 C536.84 511.81, 668.55 361.29, 874.39 121.38 M409.23 663.37 C510.13 546.09, 610.81 431.07, 874.76 127.34 M409.43 663.4 C574.25 472.61, 738.23 283.22, 874.19 128.36 M414.45 662.39 C559.32 500.73, 702.02 336.39, 873.92 135.14 M414.54 662.64 C547.65 510.48, 681.29 356.75, 874.57 134.75 M419.29 663.02 C589.52 464.77, 761.27 269.03, 875.28 140.14 M419.73 663.39 C593.58 466.03, 766.04 267.16, 874.72 140.4 M425.55 662.11 C585.94 482.21, 742.34 299.26, 874.66 146.41 M425.36 663.16 C551.23 518.04, 678.32 371.36, 874.01 146.8 M431.11 663.9 C567.38 504.22, 705.7 345.3, 874.65 151.48 M430.65 663.25 C552.79 521.82, 676.27 379.47, 874.39 151.95 M436.97 663.27 C579.19 500.13, 721.32 336.31, 874.76 159.37 M436.03 662.87 C560.1 521.84, 682.79 380.86, 874.62 158.88 M440.72 663.61 C585.74 498.76, 730.04 332.88, 874.74 164.61 M441.37 662.9 C559.4 528.4, 677.97 392.39, 874.38 164.95 M446.77 663.25 C536.17 556.7, 625.42 453.78, 874.39 171.1 M446.66 662.33 C597.53 489.59, 747.81 316.41, 874.94 170.58 M451.8 663.72 C555.87 545.12, 660.36 427.03, 875.06 177.27 M451.88 662.88 C596.85 496.77, 740.8 331.5, 874.25 176.89 M458.22 662.6 C620.65 475.71, 782.92 288.97, 874.92 182.63 M457.72 662.27 C553.62 552.67, 649.8 442.59, 875.08 182.91 M462.82 663.37 C605.06 496.16, 748.65 330.9, 875.14 189.46 M462.18 662.76 C547.11 565.65, 632.91 466.98, 874.36 189.34 M468.62 661.86 C565.03 551.04, 662.66 439.5, 873.52 194.94 M467.7 662.87 C585.88 527.17, 705.14 389.76, 874.52 195.83 M473.5 662.49 C573.33 546.98, 673.61 431.39, 874.01 200.36 M473.02 662.7 C616.75 496.68, 761.41 329.55, 874.53 200.92 M478.88 663.14 C608.73 514.63, 738.94 365.69, 873.74 207.52 M478.65 662.89 C628.72 491.13, 778.46 319.29, 874.66 207.67 M483.17 663.37 C574.23 556.53, 667.98 450.46, 874.31 212.38 M483.55 662.69 C575.76 556.89, 667.59 451.55, 874.94 212.87 M488.77 662.12 C575.16 561.01, 662.86 461.08, 875.17 219.69 M489.02 662.92 C633.89 499.35, 776.83 334.65, 874.15 219.62 M493.99 662.68 C610.81 531.05, 728.42 395.79, 873.66 225.42 M494.52 663.3 C577.6 568.86, 659.65 474.56, 873.94 225.79 M500.06 662.45 C615.31 530.52, 729.09 398.18, 874.5 230.79 M500.04 662.16 C581.1 570.7, 660.43 480.04, 874.67 231.95 M504.56 662.67 C634.32 515.08, 763.3 366.67, 873.68 238.7 M505.06 662.56 C596.89 556.16, 689.29 450.89, 874.59 238.23 M509.48 663.72 C626.3 528.76, 744.48 392.03, 874.45 244.16 M510.28 663.18 C617.17 538.78, 724.66 414.68, 874.67 243.92 M516.28 663.15 C641.78 517.88, 768.09 373.49, 874.42 250.49 M515.89 663.07 C598.22 568.7, 679.77 474.17, 874.41 249.63 M520.97 663.24 C608.15 561.96, 693.46 462.18, 873.5 256.62 M520.67 663.29 C613.67 555.73, 707.84 447.69, 874.36 256.16 M526.98 663.12 C662.21 505.7, 799.1 348.04, 873.85 261.47 M526.1 662.48 C596.01 580.88, 665.74 500.33, 874.35 262.07 M530.53 663.73 C608.28 576.05, 683.97 487.57, 874.92 268.35 M531.34 663.08 C608.22 573.09, 686.22 483.5, 874.28 268.47 M537.34 662.35 C624.85 562.23, 714.14 460.59, 875.13 273.89 M537.18 663.01 C661.52 517.54, 787.13 372.55, 874.94 273.85 M541.63 662.36 C613.29 581.32, 684.11 498.59, 874.84 280.95 M541.88 663.41 C650.29 538.76, 760.18 412.73, 874.62 280.29 M547.63 662.99 C622.22 575.4, 697.22 488.9, 874.81 287.55 M547.43 662.73 C643.4 553.98, 738.91 444, 874.04 286.64 M551.74 662.64 C670.8 524.91, 791 387.86, 874.47 292.85 M552.25 662.93 C673 521.54, 795.43 380.53, 874.59 292.55 M557.74 663.17 C643.75 563.43, 730.81 465.35, 875.07 298.29 M558.31 662.71 C644.17 563.82, 728.95 465.08, 874.27 299.27 M563.73 663.35 C636.2 579.49, 709.46 496.39, 874.64 304.82 M562.81 662.91 C637.42 578.01, 711.54 493.56, 875.01 304.36 M568.91 663.41 C647.65 570.59, 729.72 477.88, 874.79 310.77 M568.85 663.08 C682 533.5, 794.59 403.66, 874.27 311.43 M574.14 663.06 C680.76 537.88, 788.25 413.84, 873.47 317.6 M573.54 663.31 C636.67 590.22, 700.11 516.48, 874.38 317.03 M580.33 663.3 C690.32 537.3, 798.83 412.85, 873.98 322.12 M579.77 662.8 C697.41 526.55, 815.69 391.76, 874.57 322.95 M585.13 663.87 C664.48 570.72, 743.45 478.36, 874.24 328.62 M583.89 663.35 C663.83 570.98, 742.31 480.22, 873.89 329.5 M590.46 663.35 C663.51 579.8, 734.58 495.36, 875.23 334.88 M589.88 662.41 C681.7 556.15, 775.25 448.58, 874.31 334.95 M595.73 662.08 C688.86 555.41, 780.81 448.84, 874.05 340.47 M594.74 663.34 C660.47 586.18, 726.66 510.65, 874.86 341.82 M601.27 663.08 C676.87 573.64, 753.93 486.79, 875.17 348.56 M600.96 662.33 C675.83 574.79, 752.8 486.14, 874.41 347.69 M605.38 661.97 C676.69 582.81, 746.34 503.18, 874.02 354.24 M605.5 662.91 C707.45 547.4, 809.03 431.47, 874.16 353.9 M612.34 662.98 C692.75 572.07, 773.76 478.27, 874.63 360.09 M611.76 662.78 C695.21 565.32, 779.67 468.21, 874.17 359.38 M616.31 661.77 C717.74 548.54, 816.98 432.63, 875 365.41 M616.01 663.06 C672.44 597.7, 727.99 534.73, 874.92 365.43 M622.62 662.46 C694.2 579.24, 766.73 495.41, 875.42 373.06 M621.92 662.58 C695.91 579.56, 767.78 496.29, 874.6 371.91 M627.01 661.7 C688.6 591.76, 751.11 520.78, 874.33 377.75 M626.66 662.9 C708.51 569.72, 790.05 475, 874.16 378.89 M632.1 662.76 C699.21 584.91, 767.52 505.49, 873.71 383.38 M631.59 663.24 C717.39 564.95, 801.84 467.48, 874.6 384.47 M636.34 661.99 C726.86 561.08, 814.7 459.25, 875.41 389.51 M637.26 662.94 C722.55 564.05, 806.62 467.15, 874.2 390.76 M642.26 664.16 C694.02 604.56, 746.41 542.68, 875.97 396.53 M643.02 662.59 C699.64 597.58, 755.8 532.16, 874.76 396.47 M648.94 662.87 C710.68 590.67, 775.17 518.8, 874.16 402.48 M648.24 662.85 C732.24 564.84, 818.33 466.25, 874.25 403.05 M651.99 662.8 C738.73 566.6, 821.88 469.59, 873.76 408.89 M652.6 662.95 C710.39 597.49, 767.5 531.98, 874.45 408.31 M660 661.79 C717.31 596.08, 777.25 526.69, 874.17 413.65 M659.38 662.59 C729.65 581.14, 800.5 499.58, 874.14 414.18 M662.93 662.99 C722.39 596.17, 782.16 528.78, 873.97 422.19 M663.83 663.03 C711 607.64, 759.08 553, 874.29 421.25 M670.33 661.48 C733.12 591.67, 792.85 520.94, 876.1 426.64 M669.7 662.49 C752.08 567.84, 834.15 474.3, 875.04 426.23 M673.4 662.46 C747.3 578.36, 819.89 496.08, 874.53 432.17 M674.98 662.45 C744.36 584.6, 813.14 505.54, 874.94 432.4 M678.74 662.09 C730.06 609.1, 778.73 552.29, 873.45 438.93 M680.25 663.33 C725.52 611.01, 770.94 558.49, 874.69 439.09 M683.74 663.04 C756.17 581.51, 829.25 500.62, 874.58 445.05 M685.49 663.43 C751.61 586.96, 818.62 509.15, 874.18 445.45 M690.82 663.73 C733.29 610.28, 777.98 559.64, 875.38 452.85 M689.92 663.36 C751.5 592.63, 811.4 522.49, 874.05 451.42 M696.72 662.13 C757.97 594.63, 818.77 522.54, 873.96 455.47 M696.28 663.47 C760.17 589.07, 825.63 514.88, 874.86 457.27 M701.11 663.3 C765.83 584.53, 832.94 508.48, 873.66 462.43 M701.39 662.54 C741.46 614.23, 782.55 566.25, 875.24 463.78 M705.1 661.52 C773.94 586.29, 840.4 509.67, 872.7 470.9 M706.75 662.55 C740.86 622.46, 776.39 583.03, 873.93 470.29 M710.8 663.77 C770.92 592.03, 834.99 519.89, 875.25 474.68 M711.95 662.95 C772.4 594.63, 831.2 527.58, 874.79 475.57 M716.48 661.55 C772.05 597.7, 832.95 528.77, 873.79 480.74 M716.21 663.61 C765.92 609.57, 813.86 554.15, 874.12 482.03 M722.17 661.71 C771.23 603.93, 819.43 547.27, 873.76 489.06 M722.72 662.29 C778.31 600.72, 832.79 538.52, 875.55 487.4 M728.4 664.25 C783.8 597.34, 836.97 533.93, 875.93 492.61 M727.26 662.69 C759.81 627.93, 788.75 593.13, 873.75 494.33 M731.72 663.65 C777.94 611.51, 823.38 558.22, 874.41 500.42 M732.32 661.95 C779.7 608.7, 825.21 555.95, 874.8 500.32 M737.23 663.01 C771.11 622.41, 805.7 582.95, 875.78 507.1 M737.54 662 C768.15 627.86, 798.88 593.72, 874.32 505.32 M743.01 663.27 C778.24 623.78, 811.74 584.27, 873.51 513.12 M743.03 662.9 C774.41 627.05, 806.73 591.35, 875.1 512.72 M748.99 663.09 C789.87 617.88, 827.45 572.37, 874.13 517.46 M747.89 663.67 C775.13 630.12, 803.51 597.07, 874.74 516.98 M751.79 662.05 C784.64 627.88, 813.53 595.73, 875.09 525.26 M752.84 662.47 C790.81 620.2, 829.15 575.53, 875.38 524.85 M758.15 664.8 C799.81 614.4, 842.4 569.58, 872.38 532.11 M759.59 663.77 C785.3 633.82, 809.56 606.08, 874.04 531.25 M764.26 664.5 C804.78 617.96, 840.77 570.64, 875.74 535.39 M764.33 662.72 C788.96 636.08, 811.74 608.18, 874.91 535.5 M769.63 662.18 C800.57 625.22, 835.67 589.16, 875.29 541.97 M769.6 663.47 C809.56 615.91, 849.28 569.06, 874.14 541.99 M776.45 662.13 C803.05 633.14, 827.4 601.28, 874.7 548.34 M775.76 663.44 C800.06 635.34, 826.99 604.4, 875.13 549.17 M779.5 663.24 C818.64 624.8, 852.19 581.3, 874.58 556 M780.92 663.62 C802.39 637.09, 825.2 611.43, 873.99 553.93 M785.48 662.41 C811.94 634.83, 835.97 603.88, 873.71 559.55 M786.37 662.95 C806.81 640.1, 825.41 615.49, 874.76 560.6 M790.93 661.89 C814.3 637.6, 834.16 614.23, 875.69 566.34 M790.53 662.56 C812.94 637.05, 835.09 612.1, 874.19 567.55 M797.55 664.71 C815.82 641.36, 839.87 615.07, 875.57 572.11 M796.37 662.13 C822.6 631.91, 850.7 600.85, 874.42 573.78 M802.12 662 C827.94 629.83, 857.04 599.37, 873.1 577.07 M801.38 662.18 C823.42 638.9, 843.69 615.56, 874.29 579.9 M807.88 664.38 C826.72 639.96, 848.03 613.78, 876.13 585.32 M806.96 662.39 C826.03 641.14, 845.71 617.82, 874.75 584.52 M814.37 661.36 C825.1 645.36, 838.08 632.14, 873.74 592.96 M812.39 661.91 C828.73 642.04, 847.93 622.6, 874.16 591.28 M816.81 664.69 C830.35 645.2, 846.49 629.09, 874.99 595.69 M818.26 663.67 C830.18 648.51, 842.18 635.78, 875.01 597.4 M824 663.72 C843.09 641.29, 862.51 621.24, 875.52 604.47 M822.43 662.7 C844.02 639.89, 865.12 616.51, 874.61 604.29 M829.69 664.83 C848.05 642.74, 866.71 619.75, 874.8 609.63 M827.42 662.43 C841.43 646.96, 855 632.92, 874.42 608.53 M834.43 662.75 C849.08 648.83, 860.69 632.82, 875.48 616.24 M834.37 663.02 C846.56 648.68, 859.28 632.53, 875.45 616.28 M836.97 663.96 C854.69 647.34, 866.38 629.99, 872.62 620.25 M838.5 663.67 C850.3 648.64, 863.58 635.39, 873.53 622.29 M844.12 662.06 C853.54 653.1, 862.83 640.02, 876.36 628.1 M845.02 662.9 C851.92 651.8, 861.64 643.59, 874.1 628.44 M850.13 661.15 C858.17 653.54, 867.17 645.04, 874.55 632.35 M848.58 662.92 C856.07 653.76, 863.85 646.27, 874.82 634.35 M854.59 663.2 C860.55 655.54, 868.77 645.76, 873.98 639.82 M855.18 661.87 C860.38 657.1, 866.12 649.41, 874.96 640.43 M861.75 663.42 C862.85 659.18, 865.63 655.6, 875.76 646.93 M859.66 662.23 C864.49 658.01, 868.76 652.53, 874.76 646.17 M865.57 662.65 C868.55 659.65, 869.13 656.52, 873.06 652.1 M864.99 663.62 C868.24 659.88, 869.87 656.5, 874.6 653.06 M870.34 662.5 C872.75 660.87, 873.08 659.1, 874.81 658.26 M870.73 662.65 C871.98 661.37, 872.93 659.97, 874.6 658.2" stroke="#ced4da" stroke-width="0.5" fill="none"></path><path d="M0.71 0.69 C346.03 -0.08, 690.83 -0.63, 874.39 0.77 M-0.13 0.23 C242 -0.05, 483.48 0.6, 874.66 -0.15 M874.24 -0.17 C871.63 231.93, 871.52 463.55, 873.8 661.89 M874.69 -0.05 C871.76 173.25, 872.08 346.56, 874.1 661.34 M874.85 661.84 C543.59 657.96, 213.82 658.35, 0.79 661.4 M874.15 661.3 C630.23 659.89, 386.28 660.03, -0.37 661.44 M0.35 661.81 C0.99 405.5, 0.81 149.05, -0.11 0.49 M-0.1 661.66 C0.16 525.88, -0.51 389.54, 0.29 -0.06" stroke="#5f3dc4" stroke-width="1" fill="none"></path></g><g transform="translate(98.00009155273438 26.40001678466797) rotate(0 340 17.5)"><text x="0" y="25" font-family="Virgil, Segoe UI Emoji" font-size="27.680004882812497px" fill="#5f3dc4" text-anchor="start" style="white-space: pre;" direction="ltr">Language to focus in 2023 based on randomness</text></g><g transform="translate(102 572.6999816894531) rotate(0 156 12.5)"><text x="0" y="18" font-family="Virgil, Segoe UI Emoji" font-size="20px" fill="#c92a2a" text-anchor="start" style="white-space: pre;" direction="ltr">High-level Programming Language</text></g><g transform="translate(482.3999328613281 572.1000061035156) rotate(0 156 12.5)"><text x="0" y="18" font-family="Virgil, Segoe UI Emoji" font-size="20px" fill="#c92a2a" text-anchor="start" style="white-space: pre;" direction="ltr">Low-level Programming Language</text></g><g transform="translate(229.19998168945312 605.4001159667969) rotate(0 15 12.5)"><text x="0" y="18" font-family="Virgil, Segoe UI Emoji" font-size="20px" fill="#2b8a3e" text-anchor="start" style="white-space: pre;" direction="ltr">Win</text></g><g transform="translate(603.9999694824219 604.8999938964844) rotate(0 23 12.5)"><text x="0" y="18" font-family="Virgil, Segoe UI Emoji" font-size="20px" fill="#d9480f" text-anchor="start" style="white-space: pre;" direction="ltr">Lose</text></g><g transform="translate(221.19998168945312 335.60009765625) rotate(0 32.5 12.5)"><text x="0" y="18" font-family="Virgil, Segoe UI Emoji" font-size="20px" fill="#c92a2a" text-anchor="start" style="white-space: pre;" direction="ltr">Python</text></g><g transform="translate(326.4999084472656 335.10003662109375) rotate(0 53 12.5)"><text x="0" y="18" font-family="Virgil, Segoe UI Emoji" font-size="20px" fill="#c92a2a" text-anchor="start" style="white-space: pre;" direction="ltr">Javascript</text></g><g transform="translate(483.0999450683594 339.9000549316406) rotate(0 25.5 12.5)"><text x="0" y="18" font-family="Virgil, Segoe UI Emoji" font-size="20px" fill="#c92a2a" text-anchor="start" style="white-space: pre;" direction="ltr">Java</text></g><g transform="translate(592.0999450683594 340.9000549316406) rotate(0 14 12.5)"><text x="0" y="18" font-family="Virgil, Segoe UI Emoji" font-size="20px" fill="#c92a2a" text-anchor="start" style="white-space: pre;" direction="ltr">Go</text></g><g stroke-linecap="round"><g transform="translate(218.79995727539062 409.4000549316406) rotate(0 211.60982554721107 -1.1634646335333514)"><path d="M-0.9 -0.24 C153.54 0.44, 308.62 -0.07, 423.36 -1.77 M-0.18 0.43 C155.5 -1.71, 311.73 -3, 424.12 -2.72" stroke="#c92a2a" stroke-width="1" fill="none"></path></g></g><mask></mask><g stroke-linecap="round"><g transform="translate(252.39999389648438 560.6000366210938) rotate(0 83.46334093723686 -74.37024932573036)"><path d="M-1.7 0.56 C42.67 -40.24, 89.71 -80, 167.16 -149.3 M0.19 0.32 C44.11 -38.71, 86.76 -76.72, 168.63 -149.16" stroke="#c92a2a" stroke-width="1" fill="none"></path></g><g transform="translate(252.39999389648438 560.6000366210938) rotate(0 83.46334093723686 -74.37024932573036)"><path d="M152.35 -122.13 C156.72 -129.62, 163.25 -136.85, 167.65 -149.74 M154.56 -122.41 C158.71 -129.7, 161.81 -136.23, 169.37 -149.57" stroke="#c92a2a" stroke-width="1" fill="none"></path></g><g transform="translate(252.39999389648438 560.6000366210938) rotate(0 83.46334093723686 -74.37024932573036)"><path d="M138.74 -137.49 C146.85 -140.98, 157 -144.12, 167.65 -149.74 M140.95 -137.77 C148.55 -141.16, 155.14 -143.74, 169.37 -149.57" stroke="#c92a2a" stroke-width="1" fill="none"></path></g></g><mask></mask><g transform="translate(359.7999572753906 372.300048828125) rotate(0 15 12.5)"><text x="0" y="18" font-family="Virgil, Segoe UI Emoji" font-size="20px" fill="#2b8a3e" text-anchor="start" style="white-space: pre;" direction="ltr">Win</text></g><g transform="translate(492.7999572753906 372.300048828125) rotate(0 15 12.5)"><text x="0" y="18" font-family="Virgil, Segoe UI Emoji" font-size="20px" fill="#2b8a3e" text-anchor="start" style="white-space: pre;" direction="ltr">Win</text></g><g transform="translate(232.79995727539062 371.300048828125) rotate(0 23 12.5)"><text x="0" y="18" font-family="Virgil, Segoe UI Emoji" font-size="20px" fill="#d9480f" text-anchor="start" style="white-space: pre;" direction="ltr">Lose</text></g><g transform="translate(580.7999572753906 370.300048828125) rotate(0 23 12.5)"><text x="0" y="18" font-family="Virgil, Segoe UI Emoji" font-size="20px" fill="#d9480f" text-anchor="start" style="white-space: pre;" direction="ltr">Lose</text></g><g transform="translate(285.7999572753906 183.10003662109375) rotate(0 53 12.5)"><text x="0" y="18" font-family="Virgil, Segoe UI Emoji" font-size="20px" fill="#c92a2a" text-anchor="start" style="white-space: pre;" direction="ltr">Javascript</text></g><g transform="translate(490.0999450683594 183.10003662109375) rotate(0 25.5 12.5)"><text x="0" y="18" font-family="Virgil, Segoe UI Emoji" font-size="20px" fill="#c92a2a" text-anchor="start" style="white-space: pre;" direction="ltr">Java</text></g><g stroke-linecap="round"><g transform="translate(245.59009510708586 240.7635317722051) rotate(0 170.55103742090319 -1.068511494138562)"><path d="M0.91 0.02 C90.46 0.54, 180.67 0.15, 340.4 -0.45 M0.03 0.09 C89.26 -2.08, 177.95 -2.75, 341.08 -2.24" stroke="#c92a2a" stroke-width="1" fill="none"></path></g></g><mask></mask><g stroke-linecap="round"><g transform="translate(385.1999816894531 330.00006103515625) rotate(0 21.045160887762904 -45.33654832933098)"><path d="M1.69 -0.77 C9.73 -28.09, 22.31 -53.22, 38.97 -90.19 M0.51 -0.49 C9.6 -20.08, 19.36 -39.92, 41.58 -89.4" stroke="#c92a2a" stroke-width="1" fill="none"></path></g><g transform="translate(385.1999816894531 330.00006103515625) rotate(0 21.045160887762904 -45.33654832933098)"><path d="M40.95 -60.26 C38.23 -69.69, 39.48 -77.23, 39.75 -89.99 M39.78 -59.98 C40.07 -66.09, 41.05 -72.31, 42.35 -89.2" stroke="#c92a2a" stroke-width="1" fill="none"></path></g><g transform="translate(385.1999816894531 330.00006103515625) rotate(0 21.045160887762904 -45.33654832933098)"><path d="M22.27 -68.75 C25.14 -75.83, 31.89 -80.87, 39.75 -89.99 M21.09 -68.46 C25.65 -72.57, 30.9 -76.85, 42.35 -89.2" stroke="#c92a2a" stroke-width="1" fill="none"></path></g></g><mask></mask><g stroke-linecap="round"><g transform="translate(511.5999450683594 330.00006103515625) rotate(0 -33.7149937460199 -45.92731970176101)"><path d="M0.06 -0.43 C-20.67 -29.47, -43.18 -59.29, -66.27 -91.42 M-0.98 -0.53 C-24.17 -31.29, -48.33 -63.8, -67.49 -90.89" stroke="#c92a2a" stroke-width="1" fill="none"></path></g><g transform="translate(511.5999450683594 330.00006103515625) rotate(0 -33.7149937460199 -45.92731970176101)"><path d="M-42.65 -74.42 C-49.07 -79.57, -57.42 -85.3, -65.76 -91.91 M-43.69 -74.51 C-51.77 -79.64, -60.77 -86.36, -66.98 -91.38" stroke="#c92a2a" stroke-width="1" fill="none"></path></g><g transform="translate(511.5999450683594 330.00006103515625) rotate(0 -33.7149937460199 -45.92731970176101)"><path d="M-59.32 -62.44 C-60.3 -71.61, -63.18 -81.27, -65.76 -91.91 M-60.35 -62.54 C-62.58 -71.93, -65.72 -82.85, -66.98 -91.38" stroke="#c92a2a" stroke-width="1" fill="none"></path></g></g><mask></mask><g transform="translate(323.7999572753906 210.300048828125) rotate(0 15 12.5)"><text x="0" y="18" font-family="Virgil, Segoe UI Emoji" font-size="20px" fill="#2b8a3e" text-anchor="start" style="white-space: pre;" direction="ltr">Win</text></g><g transform="translate(489.7999572753906 206.300048828125) rotate(0 23 12.5)"><text x="0" y="18" font-family="Virgil, Segoe UI Emoji" font-size="20px" fill="#d9480f" text-anchor="start" style="white-space: pre;" direction="ltr">Lose</text></g><g transform="translate(247.19998168945312 77.50007629394531) rotate(0 189 45.5)"><text x="0" y="64" font-family="Virgil, Segoe UI Emoji" font-size="71.83997802734376px" fill="#d9480f" text-anchor="start" style="white-space: pre;" direction="ltr">Javascript</text></g></svg>